<svg width="32" height="32" viewBox="0 0 32 32" fill="none" xmlns="http://www.w3.org/2000/svg">
<path fill-rule="evenodd" clip-rule="evenodd" d="M16 0.888916C16.7023 0.888916 17.2717 1.45828 17.2717 2.16062V5.10571C19.6988 5.13903 22.1249 5.26775 24.5444 5.49187L25.1067 5.54395C28.9468 5.89966 31.9037 9.08851 31.9691 12.9445L31.9896 14.1542C32.0693 18.8592 31.6901 23.5608 30.8572 28.1922C30.4782 30.2999 28.644 31.8337 26.5025 31.8337H26.1277C24.2006 31.8337 22.4546 30.698 21.6733 28.9365L19.875 24.8818C18.3845 21.5213 13.6155 21.5213 12.125 24.8818L10.3267 28.9365C9.54538 30.698 7.79936 31.8337 5.87233 31.8337H5.49751C3.35596 31.8337 1.52182 30.2999 1.14278 28.1922C0.309909 23.5608 -0.0693484 18.8592 0.0103937 14.1542L0.0308968 12.9445C0.0962491 9.08851 3.05323 5.89966 6.89331 5.54395L7.45557 5.49187C9.87508 5.26775 12.3012 5.13903 14.7283 5.10571V2.16062C14.7283 1.45828 15.2977 0.888916 16 0.888916ZM24.478 10.6386C24.478 9.70218 23.7189 8.94303 22.7824 8.94303C21.846 8.94303 21.0868 9.70218 21.0868 10.6386V11.0625C21.0868 11.999 21.846 12.7581 22.7824 12.7581C23.7189 12.7581 24.478 11.999 24.478 11.0625V10.6386ZM9.21759 9.36693C9.91993 9.36693 10.4893 9.93629 10.4893 10.6386V12.7581H12.6088C13.3111 12.7581 13.8805 13.3275 13.8805 14.0298C13.8805 14.7322 13.3111 15.3015 12.6088 15.3015H10.4893V17.421C10.4893 18.1234 9.91993 18.6927 9.21759 18.6927C8.51524 18.6927 7.94589 18.1234 7.94589 17.421V15.3015H5.82638C5.12404 15.3015 4.55468 14.7322 4.55468 14.0298C4.55468 13.3275 5.12404 12.7581 5.82638 12.7581L7.94589 12.7581V10.6386C7.94589 9.93629 8.51525 9.36693 9.21759 9.36693ZM22.7824 15.3015C23.7189 15.3015 24.478 16.0607 24.478 16.9971V17.421C24.478 18.3575 23.7189 19.1166 22.7824 19.1166C21.846 19.1166 21.0868 18.3575 21.0868 17.421V16.9971C21.0868 16.0607 21.846 15.3015 22.7824 15.3015ZM26.1736 15.7254C27.1101 15.7254 27.8692 14.9663 27.8692 14.0298C27.8692 13.0934 27.1101 12.3342 26.1736 12.3342H25.7497C24.8133 12.3342 24.0541 13.0934 24.0541 14.0298C24.0541 14.9663 24.8133 15.7254 25.7497 15.7254H26.1736ZM21.5107 14.0298C21.5107 14.9663 20.7516 15.7254 19.8151 15.7254H19.3912C18.4547 15.7254 17.6956 14.9663 17.6956 14.0298C17.6956 13.0934 18.4547 12.3342 19.3912 12.3342H19.8151C20.7516 12.3342 21.5107 13.0934 21.5107 14.0298Z" fill="#1D1D1B"/>
</svg>
