<svg width="50" height="50" viewBox="0 0 50 50" fill="none" xmlns="http://www.w3.org/2000/svg">
<path d="M39.28 16.44C39.86 17.94 41.3 19 43 19C45.2 19 47 17.2 47 15C47 12.8 45.2 11 43 11C41.3 11 39.86 12.06 39.28 13.56C39.18 13.54 39.1 13.5 39 13.5H31V12C31 10.36 29.64 9 28 9H22C20.36 9 19 10.36 19 12V13.5H11C10.9 13.5 10.82 13.54 10.72 13.56C10.14 12.06 8.7 11 7 11C4.8 11 3 12.8 3 15C3 17.2 4.8 19 7 19C8.7 19 10.14 17.94 10.72 16.44C10.82 16.46 10.9 16.5 11 16.5H16.14C12.04 19.54 9.5 24.58 9.5 30C9.5 30.34 9.52 30.66 9.56 31H9C7.34 31 6 32.34 6 34V38C6 39.66 7.34 41 9 41H13C13.44 41 13.84 40.9 14.22 40.72C15.26 40.28 16 39.22 16 38V34C16 32.34 14.66 31 13 31H12.54C12.54 30.94 12.56 30.88 12.56 30.82C12.52 30.54 12.52 30.28 12.52 30C12.52 25.06 15.06 20.54 19.04 18.2C19.12 19.74 20.42 21 22 21H28C29.58 21 30.88 19.74 30.98 18.2C34.96 20.54 37.5 25.08 37.5 30C37.5 30.28 37.48 30.54 37.46 30.82C37.46 30.88 37.48 30.94 37.48 31H37C35.34 31 34 32.34 34 34V38C34 39.22 34.74 40.28 35.78 40.72C36.16 40.9 36.56 41 37 41H41C42.66 41 44 39.66 44 38V34C44 32.34 42.66 31 41 31H40.44C40.48 30.66 40.5 30.34 40.5 30C40.5 24.58 37.96 19.54 33.86 16.5H39C39.1 16.5 39.18 16.46 39.28 16.44Z" fill="#F64B0A"/>
</svg>
