<svg width="32" height="32" viewBox="0 0 32 32" fill="none" xmlns="http://www.w3.org/2000/svg">
<path d="M15.3846 0C14.7048 0 14.1538 0.551034 14.1538 1.23077V7.79487C14.1538 7.79465 14.1538 7.79509 14.1538 7.79487L14.1538 19.7079C12.9374 18.6747 11.362 18.0513 9.64098 18.0513C5.78915 18.0513 2.66663 21.1738 2.66663 25.0256C2.66663 28.8775 5.78915 32 9.64098 32C13.4928 32 16.6153 28.8775 16.6153 25.0256C16.6153 24.8307 16.6073 24.6376 16.5917 24.4467C16.6072 24.3686 16.6153 24.2878 16.6153 24.2051L16.6153 9.02564H25.2307C27.7231 9.02564 29.7435 7.00518 29.7435 4.51282C29.7435 2.02046 27.7231 0 25.2307 0H15.3846Z" fill="#1D1D1B"/>
</svg>
