<svg width="50" height="50" viewBox="0 0 50 50" fill="none" xmlns="http://www.w3.org/2000/svg">
<path d="M23.9697 5C23.1162 5 22.4242 5.68879 22.4242 6.53846V14.7436C22.4242 14.7433 22.4242 14.7439 22.4242 14.7436L22.4242 29.6349C20.8969 28.3433 18.9186 27.5641 16.7576 27.5641C11.9209 27.5641 8 31.4673 8 36.2821C8 41.0968 11.9209 45 16.7576 45C21.5943 45 25.5152 41.0968 25.5152 36.2821C25.5152 36.0383 25.5051 35.797 25.4854 35.5583C25.5049 35.4607 25.5152 35.3597 25.5152 35.2564L25.5152 16.2821H36.3333C39.4629 16.2821 42 13.7565 42 10.641C42 7.52557 39.4629 5 36.3333 5H23.9697Z" fill="#F64B0A"/>
</svg>
