<svg width="32" height="32" viewBox="0 0 32 32" fill="none" xmlns="http://www.w3.org/2000/svg">
<path d="M26.9465 10.4266L16.6798 16.3733C16.2665 16.6133 15.7465 16.6133 15.3198 16.3733L5.05313 10.4266C4.3198 9.99992 4.13313 8.99992 4.69313 8.37326C5.0798 7.93326 5.5198 7.57325 5.98646 7.31992L13.2131 3.31992C14.7598 2.45326 17.2665 2.45326 18.8131 3.31992L26.0398 7.31992C26.5065 7.57325 26.9465 7.94659 27.3331 8.37326C27.8665 8.99992 27.6798 9.99992 26.9465 10.4266Z" fill="#1D1D1B"/>
<path d="M15.2403 18.8533V27.9466C15.2403 28.9599 14.2136 29.6266 13.307 29.1866C10.5603 27.8399 5.93363 25.3199 5.93363 25.3199C4.30697 24.3999 2.97363 22.0799 2.97363 20.1733V13.2933C2.97363 12.2399 4.0803 11.5733 4.98697 12.0933L14.5736 17.6533C14.9736 17.9066 15.2403 18.3599 15.2403 18.8533Z" fill="#1D1D1B"/>
<path d="M16.7598 18.8533V27.9466C16.7598 28.9599 17.7864 29.6266 18.6931 29.1866C21.4398 27.8399 26.0664 25.3199 26.0664 25.3199C27.6931 24.3999 29.0264 22.0799 29.0264 20.1733V13.2933C29.0264 12.2399 27.9198 11.5733 27.0131 12.0933L17.4264 17.6533C17.0264 17.9066 16.7598 18.3599 16.7598 18.8533Z" fill="#1D1D1B"/>
</svg>
