<svg width="666" height="304" viewBox="0 0 666 304" fill="none" xmlns="http://www.w3.org/2000/svg">
<g opacity="0.25" clip-path="url(#clip0_508_4270)">
<path d="M314.635 304H0V0H34.9405V270.199H279.652V0H314.592V304H314.635ZM244.711 236.44H69.9236V0H104.864V202.639H209.728V0H244.669V236.44H244.711ZM174.788 0V168.88H139.847V0H174.788Z" fill="#F64B0A"/>
<path d="M666 33.7595H526.153V304H491.212V33.7595H351.365V0H666V33.7595ZM456.272 303.959H421.331V101.32H351.408V67.5601H456.272V304V303.959ZM386.348 135.079V303.959H351.408V135.12H386.348V135.079ZM666 101.32H596.076V303.959H561.136V67.5601H666V101.32ZM666 135.079V303.959H631.059V135.12H666V135.079Z" fill="#F64B0A"/>
</g>
<defs>
<clipPath id="clip0_508_4270">
<rect width="666" height="304" fill="white"/>
</clipPath>
</defs>
</svg>
