<svg width="549" height="253" viewBox="0 0 549 253" fill="none" xmlns="http://www.w3.org/2000/svg">
<g opacity="0.25" clip-path="url(#clip0_508_4274)">
<path d="M259.361 253H0V0H28.8023V224.87H230.524V0H259.326V253H259.361ZM201.721 196.774H57.6397V0H86.442V168.644H172.884V0H201.686V196.774H201.721ZM144.082 0V140.548H115.279V0H144.082Z" fill="#1D1D1B"/>
<path d="M549 28.0959H433.72V253H404.918V28.0959H289.639V0H549V28.0959ZM376.116 252.966H347.314V84.3219H289.674V56.226H376.116V253V252.966ZM318.476 112.418V252.966H289.674V112.452H318.476V112.418ZM549 84.3219H491.36V252.966H462.558V56.226H549V84.3219ZM549 112.418V252.966H520.198V112.452H549V112.418Z" fill="#1D1D1B"/>
</g>
<defs>
<clipPath id="clip0_508_4274">
<rect width="549" height="253" fill="white"/>
</clipPath>
</defs>
</svg>
