<svg width="40" height="40" viewBox="0 0 40 40" fill="none" xmlns="http://www.w3.org/2000/svg">
<g id="Solid/Navigation/Explore">
<g id="Icon">
<path fill-rule="evenodd" clip-rule="evenodd" d="M10.6622 7.90654V10.593L7.3322 10.8516C4.97774 11.0344 3.05716 12.7398 2.67955 14.9829C2.59748 15.4703 2.52285 15.9587 2.45565 16.4478C2.4223 16.6904 2.55684 16.9253 2.78683 17.0301L2.93831 17.0991C13.6104 21.9601 26.3897 21.9601 37.0617 17.0991L37.2132 17.0301C37.4432 16.9254 37.5777 16.6905 37.5444 16.4478C37.4772 15.9587 37.4025 15.4703 37.3205 14.9829C36.9428 12.7398 35.0223 11.0344 32.6678 10.8516L29.3378 10.593V7.90654C29.3378 6.26839 28.092 4.87674 26.4079 4.63373L24.0097 4.28768C21.3515 3.90411 18.6486 3.90411 15.9903 4.28768L13.5921 4.63373C11.9081 4.87674 10.6622 6.26839 10.6622 7.90654ZM23.5723 7.09295C21.204 6.75122 18.796 6.75122 16.4277 7.09295L14.0296 7.439C13.789 7.47371 13.611 7.67252 13.611 7.90654V10.3934C17.8668 10.1588 22.1332 10.1588 26.389 10.3934V7.90654C26.389 7.67252 26.2111 7.47371 25.9705 7.439L23.5723 7.09295Z" fill="white"/>
<path d="M37.9253 20.4061C37.9106 20.1411 37.6222 19.9756 37.37 20.0831C26.4184 24.7477 13.5816 24.7477 2.62998 20.083C2.37776 19.9756 2.08941 20.1411 2.07474 20.4061C1.87467 24.0208 2.07627 27.651 2.67955 31.2346C3.05716 33.4777 4.97774 35.183 7.3322 35.3659L11.0121 35.6516C16.9943 36.1161 23.0057 36.1161 28.9879 35.6516L32.6678 35.3659C35.0223 35.183 36.9428 33.4777 37.3205 31.2346C37.9237 27.651 38.1253 24.0209 37.9253 20.4061Z" fill="white"/>
</g>
</g>
</svg>
