<svg width="40" height="40" viewBox="0 0 40 40" fill="none" xmlns="http://www.w3.org/2000/svg">
<g id="Solid/Navigation/Explore">
<g id="Icon">
<path fill-rule="evenodd" clip-rule="evenodd" d="M4.00024 20C4.00024 11.1634 11.1637 4 20.0002 4C28.8368 4 36.0002 11.1634 36.0002 20C36.0002 28.8366 28.8368 36 20.0002 36C11.1637 36 4.00024 28.8366 4.00024 20ZM17.8971 15.0789C16.19 16.4833 15.0495 18.4586 14.6868 20.6392L13.4859 27.8586C13.2087 29.5253 15.1467 30.6442 16.4515 29.5707L22.1032 24.9211C23.8103 23.5167 24.9508 21.5413 25.3135 19.3607L26.5143 12.1414C26.7915 10.4747 24.8536 9.35577 23.5488 10.4292L17.8971 15.0789Z" fill="white"/>
<path d="M17.2574 20C17.2574 18.4852 18.4854 17.2571 20.0002 17.2571C21.5151 17.2571 22.7431 18.4852 22.7431 20C22.7431 21.5148 21.5151 22.7429 20.0002 22.7429C18.4854 22.7429 17.2574 21.5148 17.2574 20Z" fill="white"/>
</g>
</g>
</svg>
