<svg width="1440" height="664" viewBox="0 0 1440 664" fill="none" xmlns="http://www.w3.org/2000/svg">
<g opacity="0.05" clip-path="url(#clip0_382_602)">
<path d="M679.268 664.001H-10V0.00146484H66.5438V590.174H602.631V0.00146484H679.175V664.001H679.268ZM526.087 516.436H143.181V0.00146484H219.725V442.608H449.45V0.00146484H525.994V516.436H526.087ZM372.906 0.00146484V368.87H296.362V0.00146484H372.906Z" fill="#F9F9F9"/>
<path d="M1449 73.7388H1142.64V664.001H1066.09V73.7388H759.732V0.000976562H1449V73.7388ZM989.551 663.911H913.007V221.304H759.826V147.567H989.551V664.001V663.911ZM836.37 295.042V663.911H759.826V295.132H836.37V295.042ZM1449 221.304H1295.82V663.911H1219.28V147.567H1449V221.304ZM1449 295.042V663.911H1372.46V295.132H1449V295.042Z" fill="#F9F9F9"/>
</g>
<defs>
<clipPath id="clip0_382_602">
<rect width="1459" height="664" fill="white" transform="translate(-10)"/>
</clipPath>
</defs>
</svg>
