<svg width="1336" height="259" viewBox="0 0 1336 259" fill="none" xmlns="http://www.w3.org/2000/svg">
<g opacity="0.25" clip-path="url(#clip0_281_3701)">
<path d="M631.16 608.001H0V0.000976562H70.0909V540.4H560.983V0.000976562H631.074V608.001H631.16ZM490.892 472.881H140.267V0.000976562H210.358V405.279H420.716V0.000976562H490.807V472.881H490.892ZM350.625 0.000976562V337.76H280.534V0.000976562H350.625Z" fill="#F9F9F9"/>
<path d="M1336 67.5199H1055.47V608.001H985.375V67.5199H704.84V0.000976562H1336V67.5199ZM915.284 607.919H845.193V202.64H704.926V135.121H915.284V608.001V607.919ZM775.017 270.159V607.919H704.926V270.242H775.017V270.159ZM1336 202.64H1195.73V607.919H1125.64V135.121H1336V202.64ZM1336 270.159V607.919H1265.91V270.242H1336V270.159Z" fill="#F9F9F9"/>
</g>
<defs>
<clipPath id="clip0_281_3701">
<rect width="1336" height="608" fill="white"/>
</clipPath>
</defs>
</svg>
