<svg width="590" height="286" viewBox="0 0 590 286" fill="none" xmlns="http://www.w3.org/2000/svg">
<g opacity="0.25" clip-path="url(#clip0_212_5155)">
<path d="M296.683 286H0V0H32.9469V254.201H263.696V0H296.643V286H296.683ZM230.749 222.44H65.934V0H98.8809V190.641H197.762V0H230.709V222.44H230.749ZM164.815 0V158.88H131.868V0H164.815Z" fill="#F64B0A"/>
<path d="M628 31.7606H496.132V286H463.185V31.7606H331.317V0H628V31.7606ZM430.238 285.961H397.291V95.3204H331.357V63.5599H430.238V286V285.961ZM364.304 127.081V285.961H331.357V127.12H364.304V127.081ZM628 95.3204H562.066V285.961H529.119V63.5599H628V95.3204ZM628 127.081V285.961H595.053V127.12H628V127.081Z" fill="#F64B0A"/>
</g>
<defs>
<clipPath id="clip0_212_5155">
<rect width="628" height="286" fill="white"/>
</clipPath>
</defs>
</svg>
