<svg width="64" height="64" viewBox="0 0 64 64" fill="none" xmlns="http://www.w3.org/2000/svg">
<g id="gridicons:play">
<path id="Vector" d="M31.9999 5.33337C26.7258 5.33337 21.57 6.89735 17.1847 9.82752C12.7994 12.7577 9.38148 16.9225 7.36314 21.7951C5.34481 26.6678 4.81672 32.0296 5.84566 37.2024C6.8746 42.3753 9.41435 47.1268 13.1438 50.8562C16.8732 54.5856 21.6247 57.1254 26.7975 58.1543C31.9704 59.1833 37.3321 58.6552 42.2048 56.6368C47.0775 54.6185 51.2423 51.2006 54.1725 46.8152C57.1026 42.4299 58.6666 37.2742 58.6666 32C58.6666 28.4981 57.9768 25.0305 56.6367 21.7951C55.2966 18.5598 53.3323 15.6201 50.8561 13.1439C48.3799 10.6676 45.4402 8.70338 42.2048 7.36325C38.9695 6.02313 35.5018 5.33337 31.9999 5.33337ZM26.6666 44V20L42.6666 32L26.6666 44Z" fill="#F8F8F8"/>
</g>
</svg>
