<svg width="310" height="310" viewBox="0 0 310 310" fill="none" xmlns="http://www.w3.org/2000/svg">
<g opacity="0.15" clip-path="url(#clip0_289_5146)">
<path d="M152.721 310.001H-169V0.000534058H-133.273V275.533H116.95V0.000534058H152.678V310.001H152.721ZM81.2229 241.107H-97.5015V0.000534058H-61.7741V206.639H45.4518V0.000534058H81.1793V241.107H81.2229ZM9.7244 0.000534058V172.213H-26.0031V0.000534058H9.7244Z" fill="#ffffff"/>
<path d="M512 34.4262H369.003V310H333.276V34.4262H190.279V0.000396729H512V34.4262ZM297.548 309.958H261.821V103.32H190.322V68.894H297.548V310V309.958ZM226.05 137.746V309.958H190.322V137.788H226.05V137.746ZM512 103.32H440.502V309.958H404.774V68.894H512V103.32ZM512 137.746V309.958H476.273V137.788H512V137.746Z" fill="#ffffff"/>
</g>
<defs>
<clipPath id="clip0_289_5146">
<rect width="681" height="310" fill="white" transform="translate(-169)"/>
</clipPath>
</defs>
</svg>
