<svg width="295" height="53" viewBox="0 0 295 53" fill="none" xmlns="http://www.w3.org/2000/svg">
<path d="M133.174 0.103516H136.319V10.7575C136.319 11.6752 136.397 12.3243 136.554 12.7048C136.718 13.0853 136.983 13.3912 137.349 13.6225C137.722 13.8463 138.169 13.9582 138.692 13.9582C139.244 13.9582 139.717 13.8314 140.113 13.5777C140.516 13.324 140.792 13.0032 140.941 12.6153C141.098 12.2199 141.176 11.47 141.176 10.3658V0.103516H144.321V9.91819C144.321 11.5745 144.227 12.7235 144.041 13.3651C143.854 14.0067 143.496 14.626 142.967 15.2228C142.444 15.8197 141.84 16.2636 141.154 16.5546C140.467 16.8381 139.669 16.9798 138.759 16.9798C137.565 16.9798 136.524 16.7075 135.636 16.1629C134.756 15.6108 134.126 14.9244 133.745 14.1037C133.365 13.2756 133.174 11.8804 133.174 9.91819V0.103516Z" fill="#1D1D1B"/>
<path d="M151.951 0.103516H155.13L161.464 16.5658H158.207L156.92 13.1748H150.206L148.863 16.5658H145.606L151.951 0.103516ZM153.563 4.46808L151.369 10.1196H155.745L153.563 4.46808Z" fill="#1D1D1B"/>
<path d="M162.962 9.07886H168.647V11.9214H162.962V9.07886Z" fill="#1D1D1B"/>
<path d="M169.842 0.103516H178.941V3.19229H175.942V16.5658H172.763V3.19229H169.842V0.103516Z" fill="#1D1D1B"/>
<path d="M191.921 11.3619H182.106C182.248 12.2273 182.625 12.9174 183.237 13.4322C183.856 13.9396 184.643 14.1932 185.598 14.1932C186.739 14.1932 187.721 13.7941 188.541 12.9958L191.115 14.2044C190.474 15.1146 189.705 15.7898 188.81 16.23C187.914 16.6628 186.851 16.8791 185.62 16.8791C183.71 16.8791 182.155 16.2785 180.954 15.0773C179.752 13.8687 179.152 12.3579 179.152 10.5449C179.152 8.68716 179.749 7.14651 180.942 5.92294C182.144 4.69191 183.647 4.07639 185.452 4.07639C187.37 4.07639 188.929 4.69191 190.13 5.92294C191.332 7.14651 191.932 8.7655 191.932 10.7799L191.921 11.3619ZM188.855 8.95575C188.653 8.27682 188.254 7.72472 187.657 7.29946C187.068 6.87419 186.381 6.66156 185.598 6.66156C184.747 6.66156 184.001 6.9003 183.36 7.37779C182.957 7.67623 182.584 8.20221 182.241 8.95575H188.855Z" fill="#1D1D1B"/>
<path d="M205.572 11.3619H195.758C195.899 12.2273 196.276 12.9174 196.888 13.4322C197.507 13.9396 198.294 14.1932 199.249 14.1932C200.391 14.1932 201.372 13.7941 202.193 12.9958L204.767 14.2044C204.125 15.1146 203.357 15.7898 202.461 16.23C201.566 16.6628 200.503 16.8791 199.272 16.8791C197.362 16.8791 195.806 16.2785 194.605 15.0773C193.404 13.8687 192.803 12.3579 192.803 10.5449C192.803 8.68716 193.4 7.14651 194.594 5.92294C195.795 4.69191 197.298 4.07639 199.104 4.07639C201.021 4.07639 202.581 4.69191 203.782 5.92294C204.983 7.14651 205.584 8.7655 205.584 10.7799L205.572 11.3619ZM202.506 8.95575C202.305 8.27682 201.905 7.72472 201.309 7.29946C200.719 6.87419 200.033 6.66156 199.249 6.66156C198.399 6.66156 197.653 6.9003 197.011 7.37779C196.608 7.67623 196.235 8.20221 195.892 8.95575H202.506Z" fill="#1D1D1B"/>
<path d="M207.025 4.38974H210.069V5.63197C210.763 5.05002 211.39 4.64714 211.95 4.42332C212.517 4.19203 213.095 4.07639 213.684 4.07639C214.893 4.07639 215.919 4.49793 216.762 5.341C217.471 6.05723 217.825 7.11667 217.825 8.5193V16.5658H214.803V11.2276C214.803 9.77271 214.736 8.80654 214.602 8.32905C214.475 7.85155 214.248 7.48971 213.919 7.2435C213.598 6.98983 213.199 6.863 212.722 6.863C212.103 6.863 211.569 7.0719 211.121 7.48971C210.681 7.90005 210.375 8.4708 210.204 9.20196C210.114 9.58246 210.069 10.4069 210.069 11.6752V16.5658H207.025V4.38974Z" fill="#1D1D1B"/>
<path d="M227.213 6.09081L225.321 7.98212C224.553 7.22112 223.855 6.84062 223.229 6.84062C222.885 6.84062 222.617 6.91522 222.423 7.06444C222.229 7.20619 222.132 7.38525 222.132 7.60162C222.132 7.76576 222.191 7.9187 222.311 8.06046C222.438 8.19475 222.744 8.38127 223.229 8.62002L224.348 9.17958C225.526 9.76152 226.336 10.3547 226.776 10.959C227.216 11.5633 227.436 12.2721 227.436 13.0853C227.436 14.1671 227.037 15.0699 226.239 15.7936C225.448 16.5173 224.385 16.8791 223.049 16.8791C221.274 16.8791 219.856 16.1853 218.797 14.7976L220.677 12.7496C221.035 13.1674 221.453 13.5068 221.93 13.768C222.415 14.0216 222.844 14.1485 223.217 14.1485C223.62 14.1485 223.945 14.0515 224.191 13.8575C224.437 13.6635 224.56 13.4397 224.56 13.186C224.56 12.716 224.116 12.2572 223.229 11.8095L222.199 11.2947C220.229 10.3024 219.244 9.0602 219.244 7.56804C219.244 6.6056 219.614 5.78491 220.352 5.10598C221.098 4.41959 222.05 4.07639 223.206 4.07639C223.997 4.07639 224.739 4.25172 225.433 4.60238C226.135 4.94557 226.728 5.44172 227.213 6.09081Z" fill="#1D1D1B"/>
<path d="M133.51 25.5975H141.864V37.3679H140.679V26.7177H134.694V37.3679H133.51V25.5975Z" fill="#1D1D1B"/>
<path d="M144.167 28.6621H145.279V30.2624C145.722 29.6543 146.231 29.1982 146.807 28.8942C147.383 28.5901 148.026 28.4381 148.736 28.4381C149.973 28.4381 151.032 28.8835 151.912 29.7743C152.793 30.6652 153.233 31.7374 153.233 32.991C153.233 34.2712 152.795 35.3595 151.92 36.2556C151.051 37.1465 150 37.5919 148.768 37.5919C148.074 37.5919 147.437 37.4479 146.855 37.1598C146.274 36.8718 145.748 36.4423 145.279 35.8716V40.5525H144.167V28.6621ZM148.648 29.5183C147.677 29.5183 146.858 29.857 146.191 30.5345C145.53 31.212 145.199 32.0548 145.199 33.063C145.199 33.7245 145.346 34.3192 145.639 34.8473C145.938 35.3755 146.362 35.7942 146.911 36.1036C147.466 36.413 148.05 36.5677 148.664 36.5677C149.266 36.5677 149.832 36.413 150.36 36.1036C150.893 35.7889 151.318 35.3514 151.632 34.7913C151.947 34.2312 152.104 33.6444 152.104 33.031C152.104 32.4122 151.947 31.8254 151.632 31.2706C151.323 30.7159 150.904 30.2864 150.376 29.9824C149.848 29.673 149.272 29.5183 148.648 29.5183Z" fill="#1D1D1B"/>
<path d="M159.065 28.4381C160.404 28.4381 161.513 28.9235 162.393 29.8944C163.193 30.7799 163.593 31.8281 163.593 33.039C163.593 34.2552 163.169 35.3194 162.321 36.2316C161.478 37.1385 160.393 37.5919 159.065 37.5919C157.731 37.5919 156.64 37.1385 155.792 36.2316C154.949 35.3194 154.528 34.2552 154.528 33.039C154.528 31.8334 154.928 30.7879 155.728 29.9024C156.608 28.9262 157.72 28.4381 159.065 28.4381ZM159.065 29.5343C158.136 29.5343 157.339 29.8784 156.672 30.5665C156.005 31.2546 155.672 32.0868 155.672 33.063C155.672 33.6924 155.824 34.2792 156.128 34.8233C156.432 35.3675 156.843 35.7889 157.36 36.0876C157.878 36.381 158.446 36.5277 159.065 36.5277C159.683 36.5277 160.251 36.381 160.769 36.0876C161.286 35.7889 161.697 35.3675 162.001 34.8233C162.305 34.2792 162.457 33.6924 162.457 33.063C162.457 32.0868 162.121 31.2546 161.449 30.5665C160.782 29.8784 159.987 29.5343 159.065 29.5343Z" fill="#1D1D1B"/>
<path d="M173.738 30.4705L172.85 31.0226C172.082 30.0037 171.034 29.4943 169.705 29.4943C168.644 29.4943 167.761 29.8357 167.057 30.5185C166.358 31.2013 166.009 32.0308 166.009 33.007C166.009 33.6418 166.169 34.2392 166.489 34.7993C166.814 35.3595 167.257 35.7942 167.817 36.1036C168.383 36.413 169.015 36.5677 169.713 36.5677C170.994 36.5677 172.039 36.0583 172.85 35.0394L173.738 35.6235C173.322 36.2476 172.762 36.7331 172.058 37.0798C171.359 37.4212 170.562 37.5919 169.665 37.5919C168.289 37.5919 167.148 37.1545 166.241 36.2796C165.334 35.4048 164.881 34.3406 164.881 33.087C164.881 32.2442 165.091 31.4627 165.513 30.7425C165.939 30.017 166.524 29.4516 167.265 29.0462C168.006 28.6408 168.836 28.4381 169.753 28.4381C170.33 28.4381 170.884 28.5261 171.418 28.7021C171.957 28.8782 172.413 29.1075 172.786 29.3903C173.16 29.673 173.477 30.0331 173.738 30.4705Z" fill="#1D1D1B"/>
<path d="M174.529 28.6621H180.258V29.6303H177.954V37.3679H176.826V29.6303H174.529V28.6621Z" fill="#1D1D1B"/>
<path d="M181.777 25.0774C182.034 25.0774 182.252 25.1681 182.434 25.3494C182.615 25.5308 182.706 25.7495 182.706 26.0056C182.706 26.2563 182.615 26.4723 182.434 26.6537C182.252 26.8351 182.034 26.9258 181.777 26.9258C181.527 26.9258 181.311 26.8351 181.129 26.6537C180.948 26.4723 180.857 26.2563 180.857 26.0056C180.857 25.7495 180.948 25.5308 181.129 25.3494C181.311 25.1681 181.527 25.0774 181.777 25.0774ZM181.217 28.6621H182.346V37.3679H181.217V28.6621Z" fill="#1D1D1B"/>
<path d="M184.289 28.6621H185.401V30.2624C185.844 29.6543 186.353 29.1982 186.929 28.8942C187.505 28.5901 188.148 28.4381 188.858 28.4381C190.095 28.4381 191.154 28.8835 192.034 29.7743C192.914 30.6652 193.355 31.7374 193.355 32.991C193.355 34.2712 192.917 35.3595 192.042 36.2556C191.173 37.1465 190.122 37.5919 188.89 37.5919C188.196 37.5919 187.559 37.4479 186.977 37.1598C186.396 36.8718 185.87 36.4423 185.401 35.8716V40.5525H184.289V28.6621ZM188.77 29.5183C187.799 29.5183 186.98 29.857 186.313 30.5345C185.652 31.212 185.321 32.0548 185.321 33.063C185.321 33.7245 185.468 34.3192 185.761 34.8473C186.06 35.3755 186.484 35.7942 187.033 36.1036C187.588 36.413 188.172 36.5677 188.786 36.5677C189.388 36.5677 189.954 36.413 190.482 36.1036C191.015 35.7889 191.44 35.3514 191.754 34.7913C192.069 34.2312 192.226 33.6444 192.226 33.031C192.226 32.4122 192.069 31.8254 191.754 31.2706C191.445 30.7159 191.026 30.2864 190.498 29.9824C189.97 29.673 189.394 29.5183 188.77 29.5183Z" fill="#1D1D1B"/>
<path d="M199.609 25.0774C199.865 25.0774 200.084 25.1681 200.266 25.3494C200.447 25.5308 200.538 25.7495 200.538 26.0056C200.538 26.2563 200.447 26.4723 200.266 26.6537C200.084 26.8351 199.865 26.9258 199.609 26.9258C199.359 26.9258 199.143 26.8351 198.961 26.6537C198.78 26.4723 198.689 26.2563 198.689 26.0056C198.689 25.7495 198.78 25.5308 198.961 25.3494C199.143 25.1681 199.359 25.0774 199.609 25.0774ZM199.049 28.6621H200.177V37.3679H199.049V28.6621Z" fill="#1D1D1B"/>
<path d="M208.29 33.175H203.233V37.3679H202.105V28.6621H203.233V32.1188H208.29V28.6621H209.41V37.3679H208.29V33.175Z" fill="#1D1D1B"/>
<path d="M217.707 33.175H212.65V37.3679H211.521V28.6621H212.65V32.1188H217.707V28.6621H218.827V37.3679H217.707V33.175Z" fill="#1D1D1B"/>
<path d="M225.059 28.4381C226.398 28.4381 227.507 28.9235 228.387 29.8944C229.188 30.7799 229.588 31.8281 229.588 33.039C229.588 34.2552 229.164 35.3194 228.315 36.2316C227.473 37.1385 226.387 37.5919 225.059 37.5919C223.725 37.5919 222.634 37.1385 221.786 36.2316C220.943 35.3194 220.522 34.2552 220.522 33.039C220.522 31.8334 220.922 30.7879 221.722 29.9024C222.602 28.9262 223.715 28.4381 225.059 28.4381ZM225.059 29.5343C224.131 29.5343 223.333 29.8784 222.666 30.5665C222 31.2546 221.666 32.0868 221.666 33.063C221.666 33.6924 221.818 34.2792 222.122 34.8233C222.426 35.3675 222.837 35.7889 223.354 36.0876C223.872 36.381 224.44 36.5277 225.059 36.5277C225.678 36.5277 226.246 36.381 226.763 36.0876C227.281 35.7889 227.691 35.3675 227.995 34.8233C228.299 34.2792 228.451 33.6924 228.451 33.063C228.451 32.0868 228.115 31.2546 227.443 30.5665C226.776 29.8784 225.982 29.5343 225.059 29.5343Z" fill="#1D1D1B"/>
<path d="M233.811 37.3679H231.283V28.6621H233.771C234.721 28.6621 235.404 28.8808 235.82 29.3182C236.241 29.7557 236.452 30.2678 236.452 30.8545C236.452 31.7401 236.062 32.3402 235.284 32.6549C236.415 33.055 236.98 33.8258 236.98 34.9674C236.98 36.5677 235.924 37.3679 233.811 37.3679ZM232.411 29.6303V32.3508H233.139C233.801 32.3508 234.233 32.3242 234.435 32.2708C234.638 32.2175 234.828 32.0868 235.004 31.8788C235.185 31.6654 235.276 31.3853 235.276 31.0386C235.276 30.6758 235.182 30.3718 234.996 30.1264C234.809 29.881 234.612 29.737 234.403 29.6943C234.201 29.6516 233.779 29.6303 233.139 29.6303H232.411ZM232.411 33.3751V36.4237H233.611C234.177 36.4237 234.579 36.389 234.82 36.3196C235.065 36.245 235.273 36.0876 235.444 35.8475C235.62 35.6075 235.708 35.3034 235.708 34.9354C235.708 34.4606 235.558 34.0819 235.26 33.7991C234.961 33.5164 234.566 33.3751 234.075 33.3751H232.411Z" fill="#1D1D1B"/>
<path d="M247.229 28.6621V37.3679H246.125V35.8716C245.655 36.4423 245.127 36.8718 244.54 37.1598C243.959 37.4479 243.321 37.5919 242.628 37.5919C241.396 37.5919 240.342 37.1465 239.467 36.2556C238.598 35.3595 238.163 34.2712 238.163 32.991C238.163 31.7374 238.603 30.6652 239.483 29.7743C240.363 28.8835 241.422 28.4381 242.66 28.4381C243.375 28.4381 244.02 28.5901 244.596 28.8942C245.178 29.1982 245.687 29.6543 246.125 30.2624V28.6621H247.229ZM242.748 29.5183C242.124 29.5183 241.548 29.673 241.02 29.9824C240.491 30.2864 240.07 30.7159 239.755 31.2706C239.446 31.8254 239.291 32.4122 239.291 33.031C239.291 33.6444 239.449 34.2312 239.763 34.7913C240.078 35.3514 240.499 35.7889 241.028 36.1036C241.561 36.413 242.132 36.5677 242.74 36.5677C243.353 36.5677 243.935 36.413 244.484 36.1036C245.034 35.7942 245.455 35.3755 245.749 34.8473C246.047 34.3192 246.197 33.7245 246.197 33.063C246.197 32.0548 245.863 31.212 245.196 30.5345C244.535 29.857 243.719 29.5183 242.748 29.5183Z" fill="#1D1D1B"/>
<path d="M257.502 37.3679H249.364V28.6621H250.492V36.3116H255.549V28.6621H256.677V36.3116H258.558V38.7441H257.502V37.3679Z" fill="#1D1D1B"/>
<path d="M260.069 25.0774C260.325 25.0774 260.544 25.1681 260.725 25.3494C260.906 25.5308 260.997 25.7495 260.997 26.0056C260.997 26.2563 260.906 26.4723 260.725 26.6537C260.544 26.8351 260.325 26.9258 260.069 26.9258C259.818 26.9258 259.602 26.8351 259.421 26.6537C259.239 26.4723 259.149 26.2563 259.149 26.0056C259.149 25.7495 259.239 25.5308 259.421 25.3494C259.602 25.1681 259.818 25.0774 260.069 25.0774ZM259.509 28.6621H260.637V37.3679H259.509V28.6621Z" fill="#1D1D1B"/>
<path d="M263.684 28.6621V35.1034L270.078 28.6621H270.166V37.3679H269.046V30.9826L262.7 37.3679H262.564V28.6621H263.684ZM263.532 25.1654H264.589C264.77 25.4428 265.013 25.6508 265.317 25.7895C265.621 25.9282 265.984 25.9976 266.405 25.9976C266.832 25.9976 267.176 25.9362 267.437 25.8135C267.699 25.6908 267.947 25.4748 268.181 25.1654H269.206C269.088 25.6455 268.787 26.0483 268.301 26.3737C267.821 26.6937 267.186 26.8537 266.397 26.8537C265.613 26.8537 264.973 26.6964 264.477 26.3817C263.981 26.0616 263.666 25.6562 263.532 25.1654Z" fill="#1D1D1B"/>
<path d="M278.454 33.175H273.397V37.3679H272.269V28.6621H273.397V32.1188H278.454V28.6621H279.574V37.3679H278.454V33.175Z" fill="#1D1D1B"/>
<path d="M285.806 28.4381C287.145 28.4381 288.255 28.9235 289.135 29.8944C289.935 30.7799 290.335 31.8281 290.335 33.039C290.335 34.2552 289.911 35.3194 289.063 36.2316C288.22 37.1385 287.135 37.5919 285.806 37.5919C284.473 37.5919 283.382 37.1385 282.534 36.2316C281.691 35.3194 281.27 34.2552 281.27 33.039C281.27 31.8334 281.67 30.7879 282.47 29.9024C283.35 28.9262 284.462 28.4381 285.806 28.4381ZM285.806 29.5343C284.878 29.5343 284.081 29.8784 283.414 30.5665C282.747 31.2546 282.414 32.0868 282.414 33.063C282.414 33.6924 282.566 34.2792 282.87 34.8233C283.174 35.3675 283.585 35.7889 284.102 36.0876C284.62 36.381 285.188 36.5277 285.806 36.5277C286.425 36.5277 286.993 36.381 287.511 36.0876C288.028 35.7889 288.439 35.3675 288.743 34.8233C289.047 34.2792 289.199 33.6924 289.199 33.063C289.199 32.0868 288.863 31.2546 288.191 30.5665C287.524 29.8784 286.729 29.5343 285.806 29.5343Z" fill="#1D1D1B"/>
<path d="M291.862 28.6621H292.991V37.3679H291.862V28.6621ZM290.79 25.2214C291.046 25.2214 291.265 25.3121 291.446 25.4935C291.628 25.6748 291.718 25.8936 291.718 26.1496C291.718 26.4057 291.628 26.6244 291.446 26.8057C291.265 26.9871 291.046 27.0778 290.79 27.0778C290.534 27.0778 290.315 26.9871 290.134 26.8057C289.953 26.6244 289.862 26.4057 289.862 26.1496C289.862 25.8936 289.953 25.6748 290.134 25.4935C290.315 25.3121 290.534 25.2214 290.79 25.2214ZM294.055 25.2214C294.311 25.2214 294.53 25.3121 294.711 25.4935C294.892 25.6748 294.983 25.8936 294.983 26.1496C294.983 26.4057 294.892 26.6244 294.711 26.8057C294.53 26.9871 294.311 27.0778 294.055 27.0778C293.799 27.0778 293.58 26.9871 293.399 26.8057C293.217 26.6244 293.127 26.4057 293.127 26.1496C293.127 25.8936 293.217 25.6748 293.399 25.4935C293.58 25.3121 293.799 25.2214 294.055 25.2214Z" fill="#1D1D1B"/>
<path d="M137.463 43.8042C138.802 43.8042 139.911 44.2896 140.791 45.2605C141.592 46.146 141.992 47.1942 141.992 48.4051C141.992 49.6213 141.568 50.6855 140.719 51.5977C139.877 52.5046 138.791 52.958 137.463 52.958C136.129 52.958 135.038 52.5046 134.19 51.5977C133.347 50.6855 132.926 49.6213 132.926 48.4051C132.926 47.1995 133.326 46.154 134.126 45.2685C135.006 44.2923 136.118 43.8042 137.463 43.8042ZM137.463 44.9004C136.535 44.9004 135.737 45.2444 135.07 45.9326C134.403 46.6207 134.07 47.4529 134.07 48.4291C134.07 49.0585 134.222 49.6453 134.526 50.1894C134.83 50.7335 135.241 51.155 135.758 51.4537C136.276 51.7471 136.844 51.8938 137.463 51.8938C138.081 51.8938 138.65 51.7471 139.167 51.4537C139.684 51.155 140.095 50.7335 140.399 50.1894C140.703 49.6453 140.855 49.0585 140.855 48.4291C140.855 47.4529 140.519 46.6207 139.847 45.9326C139.18 45.2444 138.386 44.9004 137.463 44.9004Z" fill="#1D1D1B"/>
<path d="M152.136 45.8366L151.248 46.3887C150.48 45.3698 149.432 44.8604 148.104 44.8604C147.042 44.8604 146.159 45.2018 145.455 45.8846C144.756 46.5674 144.407 47.3969 144.407 48.3731C144.407 49.0079 144.567 49.6053 144.887 50.1654C145.212 50.7255 145.655 51.1603 146.215 51.4697C146.781 51.7791 147.413 51.9338 148.112 51.9338C149.392 51.9338 150.437 51.4244 151.248 50.4055L152.136 50.9896C151.72 51.6137 151.16 52.0992 150.456 52.4459C149.757 52.7873 148.96 52.958 148.064 52.958C146.687 52.958 145.546 52.5206 144.639 51.6457C143.732 50.7709 143.279 49.7067 143.279 48.4531C143.279 47.6103 143.489 46.8288 143.911 46.1086C144.338 45.3831 144.922 44.8177 145.663 44.4123C146.405 44.0069 147.234 43.8042 148.152 43.8042C148.728 43.8042 149.283 43.8922 149.816 44.0682C150.355 44.2443 150.811 44.4736 151.184 44.7564C151.558 45.0391 151.875 45.3991 152.136 45.8366Z" fill="#1D1D1B"/>
<path d="M156.432 52.7339H153.904V44.0282H156.392C157.342 44.0282 158.024 44.2469 158.44 44.6843C158.862 45.1218 159.073 45.6339 159.073 46.2206C159.073 47.1062 158.683 47.7063 157.904 48.021C159.035 48.4211 159.601 49.1919 159.601 50.3335C159.601 51.9338 158.544 52.7339 156.432 52.7339ZM155.032 44.9964V47.7169H155.76C156.421 47.7169 156.853 47.6903 157.056 47.6369C157.259 47.5836 157.448 47.4529 157.624 47.2449C157.806 47.0315 157.896 46.7514 157.896 46.4047C157.896 46.0419 157.803 45.7379 157.616 45.4925C157.43 45.2471 157.232 45.1031 157.024 45.0604C156.821 45.0177 156.4 44.9964 155.76 44.9964H155.032ZM155.032 48.7412V51.7898H156.232C156.797 51.7898 157.2 51.7551 157.44 51.6857C157.686 51.6111 157.894 51.4537 158.064 51.2136C158.24 50.9736 158.328 50.6695 158.328 50.3015C158.328 49.8267 158.179 49.448 157.88 49.1652C157.582 48.8825 157.187 48.7412 156.696 48.7412H155.032Z" fill="#1D1D1B"/>
<path d="M161.568 40.4435C161.824 40.4435 162.043 40.5342 162.224 40.7155C162.405 40.8969 162.496 41.1156 162.496 41.3717C162.496 41.6224 162.405 41.8384 162.224 42.0198C162.043 42.2012 161.824 42.2919 161.568 42.2919C161.317 42.2919 161.101 42.2012 160.92 42.0198C160.738 41.8384 160.648 41.6224 160.648 41.3717C160.648 41.1156 160.738 40.8969 160.92 40.7155C161.101 40.5342 161.317 40.4435 161.568 40.4435ZM161.008 44.0282H162.136V52.7339H161.008V44.0282Z" fill="#1D1D1B"/>
<path d="M163.087 44.0282H168.816V44.9964H166.512V52.7339H165.383V44.9964H163.087V44.0282Z" fill="#1D1D1B"/>
<path d="M171.063 44.0282V50.4695L177.457 44.0282H177.545V52.7339H176.424V46.3487L170.079 52.7339H169.943V44.0282H171.063Z" fill="#1D1D1B"/>
<path d="M53 53H0V0H5.88889V47.1111H47.1111V0H53V53ZM41.2222 41.2222H11.7778V0H17.6667V35.3333H35.3333V0H41.2222V41.2222ZM29.4444 0V29.4444H23.5556V0H29.4444Z" fill="#1D1D1B"/>
<path d="M112.183 5.88889H88.6278V53H82.7389V5.88889H59.1833V0H112.183V5.88889ZM76.85 53H70.9611V17.6667H59.1833V11.7778H76.85V53ZM65.0722 23.5556V53H59.1833V23.5556H65.0722ZM112.183 17.6667H100.406V53H94.5167V11.7778H112.183V17.6667ZM112.183 23.5556V53H106.294V23.5556H112.183Z" fill="#1D1D1B"/>
</svg>
