<svg width="50" height="50" viewBox="0 0 50 50" fill="none" xmlns="http://www.w3.org/2000/svg">
<path d="M33.7292 4.16663H16.2709C8.68752 4.16663 4.16669 8.68746 4.16669 16.2708V33.7083C4.16669 41.3125 8.68752 45.8333 16.2709 45.8333H33.7084C41.2917 45.8333 45.8125 41.3125 45.8125 33.7291V16.2708C45.8334 8.68746 41.3125 4.16663 33.7292 4.16663ZM17.7084 13.2916C19.8542 13.2916 21.625 15.0416 21.625 17.2083C21.625 19.375 19.875 21.125 17.7084 21.125C15.5417 21.125 13.7917 19.3333 13.7917 17.1875C13.7917 15.0416 15.5625 13.2916 17.7084 13.2916ZM25 39.75C19.3959 39.75 14.8334 35.1875 14.8334 29.5833C14.8334 28.125 16.0209 26.9166 17.4792 26.9166H32.4792C33.9375 26.9166 35.125 28.1041 35.125 29.5833C35.1667 35.1875 30.6042 39.75 25 39.75ZM32.2917 21.0833C30.1459 21.0833 28.375 19.3333 28.375 17.1666C28.375 15 30.125 13.25 32.2917 13.25C34.4584 13.25 36.2084 15 36.2084 17.1666C36.2084 19.3333 34.4375 21.0833 32.2917 21.0833Z" fill="#F64B0A"/>
</svg>
