<svg width="50" height="50" viewBox="0 0 50 50" fill="none" xmlns="http://www.w3.org/2000/svg">
<path d="M33.7292 4.16669H16.2709C8.68752 4.16669 4.16669 8.68752 4.16669 16.2709V33.7084C4.16669 41.3125 8.68752 45.8334 16.2709 45.8334H33.7084C41.2917 45.8334 45.8125 41.3125 45.8125 33.7292V16.2709C45.8334 8.68752 41.3125 4.16669 33.7292 4.16669ZM15.8959 37.8125C15.8959 38.6667 15.1875 39.375 14.3334 39.375C13.4792 39.375 12.7709 38.6667 12.7709 37.8125V33.5C12.7709 32.6459 13.4792 31.9375 14.3334 31.9375C15.1875 31.9375 15.8959 32.6459 15.8959 33.5V37.8125ZM26.5625 37.8125C26.5625 38.6667 25.8542 39.375 25 39.375C24.1459 39.375 23.4375 38.6667 23.4375 37.8125V29.1667C23.4375 28.3125 24.1459 27.6042 25 27.6042C25.8542 27.6042 26.5625 28.3125 26.5625 29.1667V37.8125ZM37.2292 37.8125C37.2292 38.6667 36.5209 39.375 35.6667 39.375C34.8125 39.375 34.1042 38.6667 34.1042 37.8125V24.8542C34.1042 24 34.8125 23.2917 35.6667 23.2917C36.5209 23.2917 37.2292 24 37.2292 24.8542V37.8125ZM37.2292 18.2709C37.2292 19.125 36.5209 19.8334 35.6667 19.8334C34.8125 19.8334 34.1042 19.125 34.1042 18.2709V16.25C28.7917 21.7084 22.1459 25.5625 14.7084 27.4167C14.5834 27.4584 14.4584 27.4584 14.3334 27.4584C13.625 27.4584 13 26.9792 12.8125 26.2709C12.6042 25.4375 13.1042 24.5834 13.9584 24.375C20.9792 22.625 27.2292 18.9375 32.1875 13.7292H29.5834C28.7292 13.7292 28.0209 13.0209 28.0209 12.1667C28.0209 11.3125 28.7292 10.6042 29.5834 10.6042H35.6875C35.7709 10.6042 35.8334 10.6459 35.9167 10.6459C36.0209 10.6667 36.125 10.6667 36.2292 10.7084C36.3334 10.75 36.4167 10.8125 36.5209 10.875C36.5834 10.9167 36.6459 10.9375 36.7084 10.9792C36.7292 11 36.7292 11.0209 36.75 11.0209C36.8334 11.1042 36.8959 11.1875 36.9584 11.2709C37.0209 11.3542 37.0834 11.4167 37.1042 11.5C37.1459 11.5834 37.1459 11.6667 37.1667 11.7709C37.1875 11.875 37.2292 11.9792 37.2292 12.1042C37.2292 12.125 37.25 12.1459 37.25 12.1667V18.2709H37.2292Z" fill="#F64B0A"/>
</svg>
