<?xml version="1.0" encoding="UTF-8"?>
<svg xmlns="http://www.w3.org/2000/svg" width="50" height="50" viewBox="0 0 50 50" fill="none">
  <path fill-rule="evenodd" clip-rule="evenodd" d="M12.8226 10.3439C18.3391 9.84545 23.8905 9.88895 29.3987 10.4738L30.8236 10.625C33.5433 10.9138 35.7322 12.9983 36.1875 15.7113L43.8743 11.5847C44.3952 11.305 45.0202 11.3079 45.5385 11.5923C46.0569 11.8768 46.3996 12.4049 46.4511 12.9987L46.5095 13.6712C47.1635 21.2092 47.1635 28.7907 46.5095 36.3288L46.4511 37.0013C46.3996 37.5951 46.0569 38.1232 45.5385 38.4076C45.0202 38.6921 44.3952 38.695 43.8743 38.4153L36.1875 34.2887C35.7322 37.0017 33.5433 39.0862 30.8236 39.375L29.3987 39.5262C23.8905 40.111 18.3391 40.1545 12.8226 39.6561L9.11378 39.3211C6.31915 39.0686 4.06115 36.9113 3.65526 34.1059C2.78158 28.0674 2.78158 21.9326 3.65526 15.894C4.06115 13.0887 6.31914 10.9314 9.11378 10.6789L12.8226 10.3439ZM36.6213 30.607C36.8094 30.6369 36.9958 30.6984 37.1734 30.7937L43.1642 34.0098C43.5892 28.0109 43.5892 21.989 43.1642 15.9901L37.1734 19.2063C36.9958 19.3016 36.8094 19.3631 36.6213 19.3929C36.9499 23.1236 36.9499 26.8764 36.6213 30.607Z" fill="#F64B0A"></path>
</svg>
