<?xml version="1.0" encoding="UTF-8"?>
<svg xmlns="http://www.w3.org/2000/svg" width="32" height="32" viewBox="0 0 32 32" fill="none">
  <path fill-rule="evenodd" clip-rule="evenodd" d="M7.14381 5.24749C11.1558 4.88876 15.1932 4.92007 19.1992 5.34098L20.2355 5.44986C22.2134 5.65768 23.8054 7.15797 24.1365 9.11064L29.7269 6.14054C30.1057 5.93926 30.5602 5.94134 30.9372 6.14607C31.3142 6.3508 31.5635 6.73091 31.6009 7.15827L31.6434 7.64229C32.119 13.0678 32.119 18.5245 31.6434 23.9499L31.6009 24.434C31.5635 24.8613 31.3142 25.2414 30.9372 25.4462C30.5602 25.6509 30.1057 25.653 29.7269 25.4517L24.1365 22.4816C23.8054 24.4343 22.2134 25.9346 20.2355 26.1424L19.1992 26.2513C15.1932 26.6722 11.1558 26.7035 7.14381 26.3448L4.44651 26.1036C2.41405 25.9219 0.771868 24.3692 0.476678 22.3501C-0.15873 18.0039 -0.15873 13.5884 0.476678 9.24219C0.771868 7.22309 2.41405 5.67038 4.44651 5.48866L7.14381 5.24749ZM24.4519 19.8317C24.5887 19.8532 24.7244 19.8975 24.8535 19.9661L29.2104 22.2809C29.5196 17.9632 29.5196 13.629 29.2104 9.31135L24.8535 11.6261C24.7244 11.6947 24.5887 11.739 24.4519 11.7605C24.6909 14.4456 24.6909 17.1466 24.4519 19.8317Z" fill="#1D1D1B"></path>
</svg>
