<?xml version="1.0" encoding="UTF-8"?>
<svg xmlns="http://www.w3.org/2000/svg" width="32" height="32" viewBox="0 0 32 32" fill="none">
  <path d="M16.0001 1C16.7717 1 17.5116 1.30649 18.0572 1.85205C18.6027 2.39761 18.9092 3.13755 18.9092 3.90909C18.9092 4.98545 18.3274 5.93091 17.4547 6.42545V8.27273H18.9092C21.6096 8.27273 24.1994 9.34545 26.1088 11.2549C28.0183 13.1644 29.091 15.7542 29.091 18.4545H30.5456C30.9313 18.4545 31.3013 18.6078 31.5741 18.8806C31.8469 19.1534 32.0001 19.5233 32.0001 19.9091V24.2727C32.0001 24.6585 31.8469 25.0285 31.5741 25.3012C31.3013 25.574 30.9313 25.7273 30.5456 25.7273H29.091V27.1818C29.091 27.9534 28.7845 28.6933 28.239 29.2389C27.6934 29.7844 26.9535 30.0909 26.1819 30.0909H5.8183C5.04677 30.0909 4.30683 29.7844 3.76127 29.2389C3.21571 28.6933 2.90921 27.9534 2.90921 27.1818V25.7273H1.45467C1.0689 25.7273 0.698929 25.574 0.426149 25.3012C0.153368 25.0285 0.00012207 24.6585 0.00012207 24.2727V19.9091C0.00012207 19.5233 0.153368 19.1534 0.426149 18.8806C0.698929 18.6078 1.0689 18.4545 1.45467 18.4545H2.90921C2.90921 15.7542 3.98194 13.1644 5.8914 11.2549C7.80086 9.34545 10.3906 8.27273 13.091 8.27273H14.5456V6.42545C13.6728 5.93091 13.091 4.98545 13.091 3.90909C13.091 3.13755 13.3975 2.39761 13.9431 1.85205C14.4886 1.30649 15.2286 1 16.0001 1ZM9.45467 17C8.49024 17 7.56532 17.3831 6.88337 18.0651C6.20142 18.747 5.8183 19.6719 5.8183 20.6364C5.8183 21.6008 6.20142 22.5257 6.88337 23.2077C7.56532 23.8896 8.49024 24.2727 9.45467 24.2727C10.4191 24.2727 11.344 23.8896 12.026 23.2077C12.7079 22.5257 13.091 21.6008 13.091 20.6364C13.091 19.6719 12.7079 18.747 12.026 18.0651C11.344 17.3831 10.4191 17 9.45467 17ZM22.5456 17C21.5812 17 20.6562 17.3831 19.9743 18.0651C19.2923 18.747 18.9092 19.6719 18.9092 20.6364C18.9092 21.6008 19.2923 22.5257 19.9743 23.2077C20.6562 23.8896 21.5812 24.2727 22.5456 24.2727C23.51 24.2727 24.4349 23.8896 25.1169 23.2077C25.7988 22.5257 26.1819 21.6008 26.1819 20.6364C26.1819 19.6719 25.7988 18.747 25.1169 18.0651C24.4349 17.3831 23.51 17 22.5456 17Z" fill="#1D1D1B"></path>
</svg>
