<?xml version="1.0" encoding="UTF-8"?>
<svg xmlns="http://www.w3.org/2000/svg" width="32" height="32" viewBox="0 0 32 32" fill="none">
  <path d="M26.3855 9.85525C26.8073 10.9462 27.8545 11.7171 29.0909 11.7171C30.6909 11.7171 32 10.408 32 8.80797C32 7.20797 30.6909 5.89888 29.0909 5.89888C27.8545 5.89888 26.8073 6.66979 26.3855 7.7607C26.3127 7.74615 26.2545 7.71706 26.1818 7.71706H20.3636V6.62615C20.3636 5.43343 19.3745 4.44434 18.1818 4.44434H13.8182C12.6255 4.44434 11.6364 5.43343 11.6364 6.62615V7.71706H5.81818C5.74545 7.71706 5.68727 7.74615 5.61455 7.7607C5.19273 6.66979 4.14545 5.89888 2.90909 5.89888C1.30909 5.89888 0 7.20797 0 8.80797C0 10.408 1.30909 11.7171 2.90909 11.7171C4.14545 11.7171 5.19273 10.9462 5.61455 9.85525C5.68727 9.86979 5.74545 9.89888 5.81818 9.89888H9.55636C6.57455 12.1098 4.72727 15.7752 4.72727 19.7171C4.72727 19.9643 4.74182 20.1971 4.77091 20.4443H4.36364C3.15636 20.4443 2.18182 21.4189 2.18182 22.6262V25.5352C2.18182 26.7425 3.15636 27.7171 4.36364 27.7171H7.27273C7.59273 27.7171 7.88364 27.6443 8.16 27.5134C8.91636 27.1934 9.45455 26.4225 9.45455 25.5352V22.6262C9.45455 21.4189 8.48 20.4443 7.27273 20.4443H6.93818C6.93818 20.4007 6.95273 20.3571 6.95273 20.3134C6.92364 20.1098 6.92364 19.9207 6.92364 19.7171C6.92364 16.1243 8.77091 12.8371 11.6655 11.1352C11.7236 12.2552 12.6691 13.1716 13.8182 13.1716H18.1818C19.3309 13.1716 20.2764 12.2552 20.3491 11.1352C23.2436 12.8371 25.0909 16.1389 25.0909 19.7171C25.0909 19.9207 25.0764 20.1098 25.0618 20.3134C25.0618 20.3571 25.0764 20.4007 25.0764 20.4443H24.7273C23.52 20.4443 22.5455 21.4189 22.5455 22.6262V25.5352C22.5455 26.4225 23.0836 27.1934 23.84 27.5134C24.1164 27.6443 24.4073 27.7171 24.7273 27.7171H27.6364C28.8436 27.7171 29.8182 26.7425 29.8182 25.5352V22.6262C29.8182 21.4189 28.8436 20.4443 27.6364 20.4443H27.2291C27.2582 20.1971 27.2727 19.9643 27.2727 19.7171C27.2727 15.7752 25.4255 12.1098 22.4436 9.89888H26.1818C26.2545 9.89888 26.3127 9.86979 26.3855 9.85525Z" fill="#1D1D1B"></path>
</svg>
