<?xml version="1.0" encoding="UTF-8"?>
<svg xmlns="http://www.w3.org/2000/svg" width="32" height="32" viewBox="0 0 32 32" fill="none">
  <path d="M0.0898395 1.0772C0.269823 0.5455 0.749781 0.127787 1.30323 0.030296C1.54921 -0.0109503 1.79969 0.00179856 2.04716 0.00104863C6.6975 0.0025485 11.3471 0.000298732 15.9967 0.00254853C16.7968 -0.0176997 17.5378 0.65199 17.5888 1.45217C17.6143 2.03487 17.5925 2.61832 17.5993 3.20101C13.0682 3.20326 8.53633 3.19876 4.00524 3.20326C3.57403 3.19051 3.19081 3.57373 3.20281 4.00494C3.19831 8.53604 3.20281 13.0679 3.20056 17.5997C2.61786 17.593 2.03442 17.6147 1.45247 17.5892C0.653039 17.5382 -0.0174008 16.7988 0.00209749 15.9986C-0.00090224 11.325 0.00284739 6.65146 0.000597592 1.97787C0.00134753 1.6764 -0.016651 1.36443 0.0898395 1.0772Z" fill="#1D1D1B"></path>
  <path d="M6.40307 7.9758C6.39182 7.14337 7.13426 6.39644 7.96743 6.40319C12.77 6.39794 17.5733 6.40169 22.3759 6.40169C23.2038 6.37019 23.968 7.07813 23.9943 7.9068C24.0055 9.53791 23.9973 11.1698 23.998 12.8009C20.5326 12.8016 17.0671 12.7979 13.6024 12.8024C13.1727 12.7904 12.791 13.1728 12.8023 13.6018C12.7978 17.0672 12.8015 20.5327 12.8008 23.9981C11.2416 24.0011 9.68253 23.9974 8.12342 24.0004C7.46723 24.0446 6.80354 23.6606 6.54106 23.0532C6.38283 22.7255 6.39782 22.3535 6.40007 21.9995C6.40307 17.3252 6.39707 12.6501 6.40307 7.9758Z" fill="#1D1D1B"></path>
  <path d="M17.2298 16.0429C17.4908 15.9852 17.76 16.0009 18.0255 16.0002C22.1516 16.0017 26.277 15.9987 30.4024 16.0017C31.2476 15.9807 32.008 16.7329 31.9968 17.5781C32.0013 21.7267 31.996 25.8753 31.999 30.0247C32.0005 30.3494 32.014 30.6876 31.882 30.9929C31.6518 31.5906 31.0338 32.0075 30.3927 31.9978C26.2943 32.0008 22.1959 31.9978 18.0975 31.9985C17.7308 31.997 17.3461 32.0293 16.9996 31.8815C16.4094 31.6491 15.9932 31.0401 16.0014 30.4042C15.9992 26.1273 15.9977 21.8497 16.0022 17.5728C15.9984 16.8604 16.5361 16.1974 17.2298 16.0429Z" fill="#1D1D1B"></path>
</svg>
