<?xml version="1.0" encoding="UTF-8"?>
<svg xmlns="http://www.w3.org/2000/svg" width="32" height="32" viewBox="0 0 32 32" fill="none">
  <path d="M28.0003 13.3335H4.00032C3.26699 13.3335 2.66699 13.9335 2.66699 14.6668V21.5868C2.66699 21.8535 2.68033 22.1201 2.70699 22.3868C2.97366 26.4935 5.50699 29.0268 9.61364 29.2935C9.88031 29.3201 10.147 29.3335 10.4136 29.3335H21.587C21.8536 29.3335 22.1203 29.3201 22.3869 29.2935C26.4936 29.0268 29.0269 26.4935 29.2936 22.3868C29.3203 22.1201 29.3336 21.8535 29.3336 21.5868V14.6668C29.3336 13.9335 28.7336 13.3335 28.0003 13.3335ZM10.667 21.5335C11.1203 22.2001 11.7336 22.7468 12.4403 23.1068C12.947 23.3468 13.147 23.9468 12.8936 24.4535C12.7203 24.8001 12.3603 25.0001 12.0003 25.0001C11.8536 25.0001 11.6936 24.9601 11.5603 24.8935C10.5203 24.3868 9.64031 23.6001 9.01365 22.6535C8.48031 21.8535 8.48031 20.8135 9.01365 20.0135C9.64031 19.0668 10.5203 18.2802 11.5603 17.7735C12.0536 17.5202 12.6536 17.7202 12.8936 18.2135C13.147 18.7202 12.947 19.3202 12.4403 19.5601C11.7336 19.9201 11.1203 20.4668 10.667 21.1335C10.587 21.2535 10.587 21.4135 10.667 21.5335ZM23.2669 22.6535C22.6269 23.6001 21.747 24.3868 20.7203 24.8935C20.5736 24.9601 20.427 25.0001 20.2803 25.0001C19.907 25.0001 19.5603 24.8001 19.387 24.4535C19.1336 23.9468 19.3336 23.3468 19.827 23.1068C20.547 22.7468 21.1603 22.2001 21.6003 21.5335C21.6936 21.4135 21.6936 21.2535 21.6003 21.1335C21.1603 20.4668 20.547 19.9201 19.827 19.5601C19.3336 19.3202 19.1336 18.7202 19.387 18.2135C19.627 17.7202 20.227 17.5202 20.7203 17.7735C21.747 18.2802 22.6269 19.0668 23.2669 20.0135C23.8003 20.8135 23.8003 21.8535 23.2669 22.6535Z" fill="#1D1D1B"></path>
  <path d="M29.3336 10.4136V10.667C29.3336 11.4003 28.7336 12.0003 28.0003 12.0003L4.00032 12.0136C3.26699 12.0136 2.66699 11.4136 2.66699 10.6803V10.4136C2.66699 10.147 2.68033 9.88031 2.70699 9.61364C2.97366 5.50699 5.50699 2.97366 9.61364 2.70699C9.88031 2.68033 10.147 2.66699 10.4136 2.66699H21.587C21.8536 2.66699 22.1203 2.68033 22.3869 2.70699C26.4936 2.97366 29.0269 5.50699 29.2936 9.61364C29.3203 9.88031 29.3336 10.147 29.3336 10.4136Z" fill="#1D1D1B"></path>
</svg>
