<?xml version="1.0" encoding="UTF-8"?>
<svg xmlns="http://www.w3.org/2000/svg" width="50" height="50" viewBox="0 0 50 50" fill="none">
  <path fill-rule="evenodd" clip-rule="evenodd" d="M25 6C25.8779 6 26.5896 6.71757 26.5896 7.60274V11.3145C29.6235 11.3565 32.6562 11.5187 35.6805 11.8012L36.3834 11.8668C41.1835 12.3151 44.8797 16.334 44.9614 21.1937L44.987 22.7184C45.0867 28.6482 44.6126 34.5736 43.5715 40.4106C43.0977 43.067 40.805 45 38.1281 45H37.6596C35.2508 45 33.0683 43.5687 32.0917 41.3486L29.8437 36.2385C27.9806 32.0033 22.0194 32.0033 20.1563 36.2385L17.9083 41.3486C16.9317 43.5687 14.7492 45 12.3404 45H11.8719C9.19496 45 6.90228 43.067 6.42848 40.4106C5.38739 34.5736 4.91331 28.6482 5.01299 22.7184L5.03862 21.1938C5.12031 16.334 8.81653 12.3151 13.6166 11.8668L14.3195 11.8012C17.3438 11.5187 20.3765 11.3565 23.4104 11.3145V7.60274C23.4104 6.71757 24.1221 6 25 6ZM35.5975 18.2877C35.5975 17.1074 34.6486 16.1507 33.478 16.1507C32.3074 16.1507 31.3585 17.1074 31.3585 18.2877V18.8219C31.3585 20.0021 32.3074 20.9589 33.478 20.9589C34.6486 20.9589 35.5975 20.0021 35.5975 18.8219V18.2877ZM16.522 16.6849C17.3999 16.6849 18.1116 17.4025 18.1116 18.2877V20.9589H20.761C21.6389 20.9589 22.3506 21.6765 22.3506 22.5616C22.3506 23.4468 21.6389 24.1644 20.761 24.1644H18.1116V26.8356C18.1116 27.7208 17.3999 28.4384 16.522 28.4384C15.6441 28.4384 14.9324 27.7208 14.9324 26.8356V24.1644H12.283C11.4051 24.1644 10.6934 23.4468 10.6934 22.5616C10.6934 21.6765 11.4051 20.9589 12.283 20.9589L14.9324 20.9589V18.2877C14.9324 17.4025 15.6441 16.6849 16.522 16.6849ZM33.478 24.1644C34.6486 24.1644 35.5975 25.1211 35.5975 26.3014V26.8356C35.5975 28.0158 34.6486 28.9726 33.478 28.9726C32.3074 28.9726 31.3585 28.0158 31.3585 26.8356V26.3014C31.3585 25.1211 32.3074 24.1644 33.478 24.1644ZM37.717 24.6986C38.8876 24.6986 39.8365 23.7419 39.8365 22.5616C39.8365 21.3814 38.8876 20.4247 37.717 20.4247H37.1871C36.0166 20.4247 35.0676 21.3814 35.0676 22.5616C35.0676 23.7419 36.0166 24.6986 37.1871 24.6986H37.717ZM31.8884 22.5616C31.8884 23.7419 30.9394 24.6986 29.7689 24.6986H29.239C28.0684 24.6986 27.1195 23.7419 27.1195 22.5616C27.1195 21.3814 28.0684 20.4247 29.239 20.4247H29.7689C30.9394 20.4247 31.8884 21.3814 31.8884 22.5616Z" fill="#F64B0A"></path>
</svg>
