<?xml version="1.0" encoding="UTF-8"?>
<svg xmlns="http://www.w3.org/2000/svg" width="35" height="35" viewBox="0 0 35 35" fill="none">
  <g clip-path="url(#clip0_281_2808)">
    <mask id="mask0_281_2808" style="mask-type:luminance" maskUnits="userSpaceOnUse" x="0" y="0" width="36" height="35">
      <path d="M0 0H35.0077V35H0V0Z" fill="white"></path>
    </mask>
    <g mask="url(#mask0_281_2808)">
      <path d="M34.0998 17.8115L34.3798 17.5L34.0998 17.1885C33.3282 16.3199 32.4194 15.5835 31.4097 15.0087C32.5109 13.8434 33.3477 12.4543 33.8632 10.9361L34.0004 10.5406L33.6189 10.3642C32.4023 9.7886 31.0924 9.43537 29.7514 9.32124C29.6737 9.32124 29.596 9.30584 29.5162 9.30094C29.4371 9.29674 29.3608 9.30094 29.2768 9.30094C29.1473 9.30094 29.0199 9.29044 28.8904 9.29044H28.8764C28.6867 9.29044 28.4984 9.29044 28.3094 9.30724C28.2254 9.30724 28.1435 9.31844 28.0588 9.32614L27.8082 9.34644C26.8244 9.44697 25.8605 9.68984 24.9466 10.0674C25.3485 9.09116 25.5969 8.05858 25.683 7.00634C25.7005 6.78934 25.7145 6.57234 25.7194 6.35534V5.78554C25.7194 5.70014 25.7096 5.63014 25.7054 5.54754C25.621 4.10754 25.2588 2.69747 24.6386 1.39514L24.4594 1.01504L24.0639 1.15224C22.5459 1.66649 21.1568 2.50217 19.9913 3.60224C19.4165 2.59188 18.6802 1.68244 17.8115 0.910037L17.5 0.630737L17.1885 0.909337C16.3197 1.68218 15.5834 2.59209 15.0087 3.60294C13.8469 2.50096 12.4615 1.66202 10.9466 1.14314L10.5497 1.00594L10.3705 1.38604C9.75208 2.68874 9.39013 4.09826 9.30438 5.53774C9.30438 5.61754 9.29318 5.69384 9.29038 5.77574C9.28688 5.85904 9.29038 5.93184 9.29038 6.01794C9.29038 6.20414 9.29038 6.39104 9.29948 6.57654C9.29948 6.71654 9.31208 6.85654 9.32468 6.99654C9.32468 7.08054 9.34008 7.16454 9.34918 7.24854C9.35898 7.33324 9.36668 7.41864 9.37928 7.50474C9.49408 8.38184 9.72228 9.24004 10.0597 10.0576C9.14581 9.67987 8.18185 9.43699 7.19808 9.33664L6.94678 9.31704C6.86418 9.31704 6.78228 9.30304 6.69758 9.29814C6.61358 9.29324 6.54218 9.29814 6.45958 9.28904H6.13058C6.02068 9.28904 5.86318 9.28904 5.72948 9.30094H5.49148L5.25628 9.32194C3.91572 9.4364 2.60641 9.78962 1.39018 10.3649L1.01218 10.5434L1.14868 10.9389C1.6636 12.4577 2.50079 13.8472 3.60288 15.0122C2.5929 15.587 1.68393 16.3233 0.91208 17.192L0.63208 17.5035L0.91208 17.8143C1.68729 18.684 2.60011 19.4204 3.61408 19.9941C2.50641 21.1593 1.66394 22.5503 1.14448 24.0716L1.00238 24.4657L1.39018 24.6435C2.83783 25.3356 4.41771 25.7074 6.02208 25.7334C5.73127 26.8535 5.62605 28.0136 5.71058 29.1676L5.73858 29.5869L6.15788 29.6037C6.31328 29.6037 6.46938 29.6128 6.62478 29.6128C7.52433 29.6141 8.42043 29.5017 9.29178 29.2782C9.35759 30.79 9.72831 32.2729 10.3817 33.6378L10.5609 34.0172L10.9564 33.8807C12.4803 33.3627 13.8754 32.5227 15.0465 31.4174C15.6166 32.4246 16.348 33.3315 17.2116 34.1019L17.5231 34.3805L17.8346 34.1019C18.6976 33.3307 19.4291 32.424 20.0004 31.4174C21.171 32.5218 22.5651 33.3618 24.0884 33.8807L24.486 34.0172L24.6638 33.6378C25.3174 32.273 25.6879 30.7901 25.753 29.2782C26.6168 29.4967 27.5045 29.6061 28.3955 29.6037C28.5509 29.6037 28.707 29.6037 28.8624 29.5946L29.2817 29.5771L29.3097 29.1585C29.3928 28.0043 29.2876 26.8441 28.9982 25.7236C30.6026 25.6976 32.1824 25.3259 33.6301 24.6337L34.0095 24.4545L33.873 24.0597C33.3536 22.5381 32.5111 21.1469 31.4034 19.9815C32.4146 19.4103 33.3255 18.6772 34.0998 17.8115ZM33.1128 17.5C32.4075 18.2314 31.5899 18.8454 30.6908 19.3186C29.8059 18.5481 28.795 17.9356 27.7025 17.5077C28.7984 17.0786 29.812 16.4633 30.6985 15.6891C31.5947 16.1599 32.4099 16.7708 33.1135 17.4986L33.1128 17.5ZM1.89278 17.5C2.59592 16.7731 3.41015 16.1625 4.30498 15.6912C5.19332 16.4652 6.20882 17.0798 7.30658 17.5077C6.21387 17.9351 5.2028 18.5472 4.31758 19.3172C3.41782 18.8441 2.59947 18.2301 1.89348 17.4986L1.89278 17.5ZM6.99578 25.697C8.04508 25.613 9.07478 25.3652 10.0485 24.9641C9.60958 26.0272 9.35374 27.1568 9.29178 28.3052C8.42004 28.5515 7.51802 28.674 6.61218 28.6692C6.58214 27.6645 6.71137 26.6614 6.99508 25.697H6.99578ZM23.9778 32.8405C22.5021 32.2768 21.1797 31.374 20.1173 30.205C19.5848 29.6113 19.1312 28.9514 18.7677 28.2415L17.8801 28.553C18.2633 29.3243 18.7432 30.0436 19.3081 30.6936C18.8375 31.586 18.2282 32.3978 17.5028 33.0988C16.7788 32.3972 16.1704 31.5855 15.7003 30.6936C16.2658 30.0429 16.7465 29.3232 17.1311 28.5516L16.2435 28.2401C15.8799 28.9497 15.4263 29.6094 14.8939 30.2029C13.8313 31.3722 12.5086 32.2752 11.0327 32.8391C9.82588 29.9971 9.94278 26.9227 11.3736 24.3565L11.4247 24.2662C11.6928 24.1108 11.9525 23.9302 12.2031 23.7412L12.0785 22.652C10.4098 24.0424 8.30472 24.8008 6.13268 24.794C4.76953 24.7891 3.42134 24.5096 2.16858 23.9722C3.40198 20.7963 5.93318 18.5976 9.08598 17.9438L8.84798 17.0093C5.81978 16.2904 3.35998 14.084 2.16858 11.0355C2.64962 10.8314 3.14519 10.6634 3.65118 10.5329C4.2632 10.3752 4.88874 10.2756 5.51948 10.2354L5.76098 10.2228H5.79598C5.90798 10.2228 6.02068 10.2137 6.13268 10.2137C6.24468 10.2137 6.39728 10.2137 6.52818 10.2263H6.58558C7.57881 10.2717 8.55826 10.4766 9.48638 10.8332L10.8878 9.61384C10.4666 8.56562 10.2407 7.44916 10.2214 6.31964V5.81704C10.2685 4.56228 10.5471 3.32703 11.0432 2.17354C13.2442 3.00445 15.0725 4.59996 16.1938 6.66824L17.4965 7.27584C17.0698 6.18998 16.4596 5.18556 15.6926 4.30644C16.1642 3.4102 16.7752 2.59457 17.5028 1.89004C18.2311 2.5935 18.8431 3.40818 19.3158 4.30364C18.5491 5.18288 17.9388 6.18697 17.5112 7.27234L18.8153 6.66544C19.9367 4.59797 21.7651 3.00342 23.9659 2.17354C24.4605 3.32731 24.7377 4.56255 24.7835 5.81704V6.31964C24.7835 6.52824 24.7709 6.73684 24.752 6.94264C24.6765 7.86017 24.4642 8.76125 24.122 9.61594L25.5227 10.8346C26.4689 10.4716 27.4682 10.2659 28.4809 10.2256C28.6139 10.2256 28.7455 10.2137 28.8778 10.2137C29.0108 10.2137 29.1011 10.2137 29.2131 10.2228H29.2502L29.4917 10.2354C30.6451 10.3112 31.7774 10.5818 32.8405 11.0355C31.654 14.084 29.1928 16.2904 26.166 17.0128L25.9259 17.9466C29.0808 18.6004 31.6099 20.7977 32.844 23.9757C31.5904 24.5148 30.2409 24.7953 28.8764 24.8003C26.7043 24.807 24.5993 24.0487 22.9306 22.6583L22.806 23.7482C23.0601 23.9365 23.3212 24.1122 23.5844 24.2732L23.6362 24.3642C25.0642 26.9304 25.1818 29.9992 23.975 32.8412H23.9785L23.9778 32.8405ZM25.7222 28.3052C25.6605 27.1566 25.4041 26.0269 24.9641 24.9641C25.9371 25.3645 26.9661 25.6123 28.014 25.697C28.2975 26.6616 28.427 27.6647 28.399 28.6692C27.4931 28.674 26.5911 28.5515 25.7194 28.3052H25.7222Z" fill="#CBA133"></path>
      <path d="M15.5708 21.2589L17.5028 22.4776L19.4369 21.2582H15.5708V21.2589ZM22.428 14.6215L22.6086 14.0013L20.4316 14.2848L19.8058 15.4762L22.428 14.6215Z" fill="white"></path>
      <path d="M9.662 16.429L9.7215 16.6565L10.0715 18.025L10.131 18.2518L10.1373 18.2798L12.8617 21.2408L13.0367 22.7689L13.0843 23.1819L13.0997 23.3261L13.1326 23.6061L13.3552 25.5479L17.0358 24.9319V23.2869L13.7696 21.2583L15.2361 16.4703L11.8215 15.3559L11.3875 13.8691L8.9165 13.5156L9.662 16.429ZM12.399 14.0014L12.5796 14.6216L15.2018 15.4756L14.576 14.2856L12.399 14.0014Z" fill="white"></path>
      <path d="M24.9591 11.5899L24.768 11.4219L23.5332 10.3425L23.3526 10.1843L19.9191 7.18551L18.8551 7.68251L18.5506 7.82391L17.9745 8.09131L17.6714 8.23341L17.5034 8.31041L17.3354 8.23341L17.033 8.09131L16.4569 7.82391L16.1531 7.68181L15.0884 7.18481L11.6549 10.1843L11.4743 10.3425L10.2402 11.4219L10.0484 11.5899L8.92139 12.5741L11.5744 12.9521L15.1766 13.4211L16.4212 15.7906L15.0338 20.3245H19.9737L18.5863 15.7906L19.8309 13.4211L23.4331 12.9521L26.0861 12.5741L24.9591 11.5899Z" fill="white"></path>
      <path d="M21.8751 23.6061L21.908 23.3261L21.9234 23.1812L21.9717 22.7682L22.146 21.2415L24.8704 18.2805L24.8774 18.2525L24.9362 18.025L25.2862 16.6558L25.3457 16.429L26.0912 13.5156L23.6202 13.8691L23.1862 15.3559L19.7716 16.471L21.2381 21.259L17.9705 23.2869V24.9319L21.6525 25.5479L21.8751 23.6061Z" fill="white"></path>
      <path d="M34.4491 18.123L34.7277 17.8115L35.0077 17.5L34.7277 17.1885L34.4491 16.877C33.7713 16.1182 32.9934 15.4551 32.137 14.9058C33.0955 13.7842 33.8315 12.4901 34.3056 11.0929L34.4414 10.6981L34.5779 10.3005L34.1999 10.1234L33.8198 9.9442C32.5745 9.34938 31.2335 8.98035 29.8592 8.8543C30.0421 7.95508 30.1147 7.0369 30.0755 6.1201L30.058 5.7015L30.0377 5.2857L29.6205 5.2577L29.2019 5.2297C28.9386 5.21234 28.6748 5.20346 28.4109 5.2031C27.6572 5.2022 26.9055 5.27843 26.1674 5.4306C26.068 3.95842 25.6909 2.51836 25.0558 1.1865L24.8801 0.8001L24.7009 0.4221L24.3054 0.5586L23.9085 0.6958C22.5122 1.17079 21.2192 1.90723 20.0984 2.8658C19.549 2.01111 18.8858 1.23516 18.1272 0.5593L17.8157 0.2793L17.5056 0L17.1941 0.2786L16.8826 0.5586C16.1229 1.23639 15.4597 2.01502 14.9114 2.8728C13.7905 1.91462 12.4978 1.17821 11.102 0.7028L10.703 0.5642L10.3075 0.4277L10.1269 0.7994L9.95257 1.1858C9.31751 2.51767 8.94033 3.95772 8.84097 5.4299C8.10285 5.27773 7.3511 5.2015 6.59747 5.2024C6.33567 5.2024 6.06967 5.2122 5.80507 5.229L5.38787 5.257L4.97067 5.285L4.95177 5.7036L4.93497 6.1229C4.89507 7.0399 4.96857 7.9576 5.15267 8.8564C3.77857 8.9824 2.43667 9.3513 1.19207 9.9463L0.811968 10.1255L0.429068 10.297L0.564168 10.6939L0.701368 11.0894C1.17539 12.4866 1.91139 13.7807 2.86997 14.9023C2.01349 15.4515 1.23567 16.1147 0.557868 16.8735L0.277868 17.185L-0.000732422 17.4965L0.277868 17.8073L0.557868 18.1188C1.23718 18.8842 2.01845 19.5527 2.87977 20.1054C1.91674 21.2279 1.17689 22.5239 0.699968 23.9239L0.561368 24.3103L0.424168 24.7072L0.802168 24.8864L1.18227 25.0635C2.51691 25.703 3.9615 26.0815 5.43827 26.1786C5.23458 27.1721 5.16722 28.1888 5.23807 29.2005L5.26607 29.6177L5.29407 30.0363L5.71337 30.0538L6.13057 30.0706C6.28597 30.0706 6.45607 30.0804 6.61917 30.0804C7.37002 30.0807 8.11901 30.0059 8.85497 29.8571C8.98097 31.2361 9.34987 32.5808 9.94487 33.831L10.1241 34.209L10.2956 34.5856L10.6925 34.4491L11.088 34.3133C12.4894 33.8325 13.7882 33.0932 14.917 32.1335C15.464 32.9869 16.1243 33.7621 16.8798 34.4379L17.1913 34.7179L17.5021 34.9972L17.8136 34.7179L18.1251 34.4379C18.8804 33.7621 19.5404 32.9869 20.0872 32.1335C21.2165 33.0928 22.5154 33.8321 23.9169 34.3133L24.3124 34.4491L24.7093 34.5856L24.8871 34.2062L25.0663 33.8282C25.6616 32.5784 26.0306 31.2329 26.1562 29.8543C26.8933 30.0013 27.643 30.0734 28.3948 30.0713C28.5502 30.0713 28.7217 30.0713 28.882 30.0615L29.3006 30.044L29.7199 30.0272L29.7479 29.6086L29.7759 29.1914C29.8434 28.1824 29.7741 27.169 29.5701 26.1786C31.0437 26.082 32.4853 25.7052 33.8177 25.0684L34.1957 24.8906L34.5758 24.7121L34.4386 24.3145L34.3021 23.919C33.8261 22.519 33.0855 21.224 32.1223 20.1019C32.9843 19.5515 33.7676 18.8857 34.4491 18.123ZM28.9996 25.7299C29.2887 26.8499 29.3944 28.0105 29.3111 29.1648L29.2831 29.5834L28.8638 29.6002C28.7084 29.6002 28.553 29.61 28.3969 29.61C27.4973 29.6114 26.6012 29.499 25.7299 29.2754C25.6645 30.787 25.2937 32.2698 24.64 33.6343L24.4629 34.0144L24.0653 33.8772C22.542 33.3585 21.1479 32.5187 19.9773 31.4146C19.4059 32.4209 18.6744 33.3274 17.8115 34.0984L17.5 34.377L17.1885 34.0984C16.3247 33.3282 15.5931 32.4216 15.0227 31.4146C13.8515 32.5191 12.4567 33.3589 10.9326 33.8772L10.5371 34.0144L10.3586 33.6343C9.70529 32.2696 9.33457 30.787 9.26867 29.2754C8.40067 29.4959 7.50817 29.6058 6.61217 29.6037C6.45677 29.6037 6.30067 29.6037 6.14527 29.5946L5.72667 29.5771L5.69867 29.1585C5.61396 28.0042 5.71895 26.8439 6.00947 25.7236C4.40509 25.6976 2.82521 25.3258 1.37757 24.6337L1.00237 24.4657L1.13957 24.0702C1.65906 22.5488 2.50153 21.1579 3.60917 19.9927C2.5952 19.419 1.68238 18.6826 0.907168 17.8129L0.627168 17.5014L0.907168 17.1899C1.67902 16.3214 2.58801 15.5853 3.59797 15.0108C2.49615 13.8457 1.6592 12.4562 1.14447 10.9375L1.00727 10.542L1.39017 10.3642C2.60728 9.78858 3.91755 9.43535 5.25907 9.3212L5.49427 9.3009H5.73227C5.71213 9.2238 5.69253 9.14657 5.67347 9.0692C5.65457 8.9929 5.64057 8.9131 5.62377 8.834C5.43832 7.95214 5.364 7.05053 5.40257 6.1502L5.41937 5.733L5.83867 5.705C6.83793 5.63293 7.84236 5.70269 8.82207 5.9122L9.05307 5.9647L9.29317 6.0256V5.7841C9.29317 5.6987 9.30437 5.628 9.30717 5.5461C9.39327 4.1062 9.75517 2.6964 10.374 1.3937L10.5532 1.0136L10.9501 1.1508C12.466 1.6668 13.8531 2.50311 15.0171 3.6029C15.5915 2.59209 16.3276 1.68218 17.1962 0.9093L17.5077 0.63L17.8192 0.9086C18.6879 1.68145 19.4243 2.59136 19.999 3.6022C21.1605 2.49989 22.546 1.6609 24.0611 1.1424L24.4566 1.0052L24.6351 1.3853C25.2551 2.68743 25.6174 4.09724 25.7019 5.537C25.7019 5.6168 25.7145 5.6931 25.7159 5.775C25.7173 5.8583 25.7159 5.9311 25.7159 6.0172L25.956 5.9563L26.1877 5.9031C26.918 5.74745 27.6627 5.66931 28.4095 5.67C28.6615 5.67 28.9156 5.67 29.1711 5.6959L29.5897 5.7239L29.6065 6.1411C29.6443 7.04164 29.57 7.9434 29.3853 8.8256L29.3363 9.0608C29.3188 9.1399 29.295 9.2162 29.2754 9.2925H29.5148C29.5988 9.2925 29.6709 9.3065 29.75 9.3135C31.0912 9.4269 32.4009 9.7804 33.6175 10.3565L33.9976 10.535L33.8604 10.9305C33.345 12.4489 32.5081 13.8383 31.4069 15.0038C32.4166 15.5786 33.3254 16.3149 34.097 17.1836L34.377 17.4944L34.097 17.8059C33.3219 18.6755 32.4094 19.4119 31.3957 19.9857C32.5033 21.1509 33.3458 22.5418 33.8653 24.0632L34.0018 24.4587L33.6189 24.6428C32.1729 25.3328 30.5952 25.7033 28.9933 25.7292L28.9996 25.7299Z" fill="white"></path>
      <path d="M17.1044 27.5576L17.5034 27.6997L17.9031 27.5576L18.8096 27.2356L20.4112 26.6644V26.2871L17.5027 25.7999L14.5963 26.2871V26.6644L16.1986 27.2356L17.1044 27.5576ZM6.63238 9.06009C6.65268 9.13919 6.67298 9.21549 6.69608 9.29809C6.78008 9.29809 6.86268 9.30929 6.94528 9.31699L7.19588 9.33659C8.18008 9.43739 9.14398 9.67959 10.0575 10.0576C9.68804 9.16013 9.44901 8.2144 9.34768 7.24919C9.33998 7.16309 9.33088 7.08119 9.33088 6.99719C9.24992 6.97187 9.16822 6.94899 9.08588 6.92859L8.83878 6.87259C8.1054 6.6965 7.3537 6.60815 6.59948 6.60939H6.32228C6.321 7.35507 6.40532 8.09844 6.57358 8.82489L6.63238 9.06009Z" fill="white"></path>
      <path d="M16.0259 28.1638L15.8047 28.084L13.6655 27.3231V26.4432L12.5441 26.6301L12.2732 24.2746L12.2438 24.01L12.213 23.744C11.9575 23.9316 11.6971 24.108 11.4339 24.2683L11.3828 24.3586C9.95337 26.9304 9.83577 29.9992 11.0419 32.8405C12.5177 32.2768 13.8404 31.374 14.9031 30.205C15.4355 29.6113 15.8892 28.9514 16.2527 28.2415L16.0259 28.1638ZM23.5831 24.2683C23.315 24.1122 23.0539 23.9323 22.8047 23.7433L22.7732 24.0093L22.7438 24.2746L22.4729 26.6301L21.3501 26.4432V27.3231L19.213 28.084L18.9918 28.1638L18.7692 28.2415C19.1327 28.9513 19.5863 29.6113 20.1188 30.205C21.1815 31.374 22.5041 32.2768 23.98 32.8405C25.1868 29.9992 25.0699 26.9241 23.6391 24.36L23.5831 24.2683ZM25.9197 17.9438L25.8623 18.1713L25.8049 18.3967L25.716 18.7397L23.0399 21.6489L22.9881 22.0976L22.9559 22.3776L22.9244 22.6548C24.5931 24.0452 26.6981 24.8036 28.8702 24.7968C30.2347 24.7918 31.5842 24.5113 32.8378 23.9722C31.6044 20.7942 29.0746 18.5976 25.9197 17.9438ZM12.0527 22.3776L12.0198 22.0976L11.968 21.6496L9.29047 18.739L9.20297 18.3967L9.14557 18.1713L9.08607 17.9438C5.93327 18.5976 3.40207 20.7963 2.16867 23.9722C3.42307 24.5112 4.77267 24.7919 6.13767 24.7975C8.30977 24.8045 10.4147 24.0457 12.0835 22.6555L12.0527 22.3776ZM17.6541 28.637L17.4987 28.6916L17.3426 28.637L17.12 28.5579C16.7384 29.3267 16.2615 30.0442 15.7004 30.6936C16.1707 31.5857 16.7793 32.3978 17.5036 33.0995C18.2285 32.3982 18.8374 31.5861 19.3075 30.6936C18.7415 30.0433 18.2607 29.3235 17.8767 28.5516L17.6541 28.637ZM6.60947 28.6699C7.51457 28.672 8.41547 28.5474 9.28557 28.2989C9.34749 27.1505 9.60333 26.0208 10.0423 24.9578C9.07105 25.3609 8.04308 25.6105 6.99517 25.6977C6.71051 26.6619 6.58033 27.665 6.60947 28.6699ZM27.7026 17.507C28.7932 17.9354 29.8026 18.5472 30.686 19.3165C31.5851 18.8433 32.4027 18.2293 33.108 17.4979C32.406 16.7708 31.5927 16.1602 30.6986 15.6891C29.8121 16.4633 28.7985 17.0778 27.7026 17.507ZM7.30667 17.507C6.2108 17.078 5.19724 16.463 4.31067 15.6891C3.41608 16.1605 2.6021 16.771 1.89917 17.4979C2.60345 18.2289 3.41988 18.8428 4.31767 19.3165C5.20295 18.5467 6.21401 17.9341 7.30667 17.507ZM24.9607 24.9634C25.401 26.0261 25.6576 27.1559 25.7195 28.3045C26.5896 28.5509 27.4905 28.6734 28.3956 28.6692C28.4253 27.6646 28.2966 26.6616 28.0141 25.697C26.9641 25.6123 25.9351 25.3645 24.9607 24.9634ZM19.1787 6.50022L19.5581 6.32241L20.0733 6.08091L23.7448 9.28831L23.9338 9.45351L24.1186 9.60891C24.54 8.56079 24.7654 7.44422 24.7836 6.31471V5.81211C24.7372 4.55928 24.46 3.32576 23.966 2.17351C21.7649 3.00392 19.9364 4.59926 18.8154 6.66751L19.1787 6.49951V6.50022ZM10.8879 9.61521L11.0727 9.45981L11.2617 9.30371L14.936 6.08091L15.454 6.32241L15.8341 6.49882L16.1967 6.66821C15.0747 4.59943 13.2453 3.00385 11.0433 2.17351C10.5489 3.3271 10.272 4.5621 10.2264 5.81631V6.31961C10.2438 7.44955 10.468 8.56674 10.8879 9.61591V9.61521ZM17.5029 7.28001C17.9305 6.19467 18.5408 5.19058 19.3075 4.31131C18.838 3.41372 18.2289 2.59643 17.5029 1.89001C16.7751 2.59358 16.1636 3.40826 15.6913 4.30361C16.4582 5.18254 17.0684 6.18672 17.4952 7.27231L17.5029 7.28001ZM8.84807 17.0128L8.78297 16.7538L8.71577 16.4948L7.67277 12.4229L9.09097 11.1769L9.29467 10.9998L9.49067 10.8283C8.56276 10.4718 7.58356 10.2669 6.59057 10.2214H6.52827C6.39737 10.2214 6.26507 10.2088 6.13277 10.2088C6.00047 10.2088 5.90877 10.2088 5.79677 10.2179H5.76527L5.52377 10.2305C4.89377 10.2704 4.26797 10.3705 3.65547 10.528C3.14797 10.6596 2.65097 10.829 2.16867 11.0355C3.36007 14.084 5.81987 16.2904 8.84807 17.0128ZM25.5228 10.8346L25.7188 11.0061L25.9232 11.1832L27.3414 12.4292L26.2984 16.5004L26.2312 16.7608L26.1661 17.0191C29.1929 16.2967 31.6541 14.0903 32.8406 11.0418C31.777 10.5879 30.6443 10.3174 29.4904 10.2417L29.2489 10.2291H29.2111C29.0991 10.2291 28.9885 10.22 28.8765 10.22C28.7645 10.22 28.6119 10.22 28.4796 10.2326C27.4677 10.2708 26.469 10.4741 25.5228 10.8346ZM28.061 9.31702C28.145 9.31702 28.2276 9.30301 28.3116 9.29811L28.3753 9.06011C28.5833 8.25942 28.6875 7.43529 28.6854 6.60801H28.4096C27.6551 6.60699 26.9032 6.69558 26.1696 6.87191C26.0884 6.89081 26.0135 6.91111 25.9295 6.93282C25.8455 6.95451 25.7657 6.97621 25.6845 7.00141C25.6845 7.08541 25.6691 7.16941 25.66 7.25342L25.6306 7.50891C25.5146 8.38599 25.2854 9.24434 24.9488 10.0625C25.8627 9.68503 26.8266 9.44216 27.8104 9.34152L28.061 9.31631V9.31702Z" fill="white"></path>
      <path d="M29.6099 6.14176L29.5924 5.72456L29.1738 5.69656C28.1748 5.62451 27.1706 5.69427 26.1911 5.90376L25.9587 5.95696L25.7186 6.01786V6.34616C25.7186 6.56246 25.7004 6.78016 25.6836 6.99716C25.7641 6.97196 25.839 6.95026 25.9279 6.92856C26.0161 6.90686 26.0833 6.88656 26.1673 6.86766C26.9009 6.69155 27.6528 6.6032 28.4073 6.60446H28.6831C28.6849 7.35021 28.6004 8.09367 28.4311 8.81996C28.4143 8.89976 28.394 8.97606 28.3737 9.05656C28.3527 9.13776 28.3317 9.21266 28.31 9.29456C28.4983 9.28406 28.6866 9.27776 28.877 9.27776H28.891C29.0198 9.27776 29.1472 9.27776 29.276 9.28896L29.3376 9.05656C29.3558 8.98026 29.3698 8.90116 29.3866 8.82136C29.5721 7.94076 29.647 7.04126 29.6099 6.14176ZM6.57289 8.82276C6.40479 8.0963 6.32094 7.3529 6.32299 6.60726H6.59949C7.35379 6.60672 8.10549 6.69577 8.83879 6.87256L9.07819 6.93276C9.15939 6.95446 9.24199 6.97686 9.32319 7.00136C9.29742 6.67558 9.28598 6.34884 9.28889 6.02206L9.04879 5.96116L8.81709 5.90866C8.08632 5.7527 7.34112 5.67433 6.59389 5.67486C6.34259 5.67486 6.08919 5.67486 5.83369 5.70146L5.41509 5.72946L5.39759 6.14666C5.35902 7.04722 5.43333 7.94906 5.61879 8.83116C5.63629 8.91026 5.65169 8.98656 5.66849 9.06566C5.68599 9.14546 5.70769 9.22176 5.72799 9.29806C5.86169 9.29806 5.99539 9.28546 6.12979 9.28546H6.45809C6.53719 9.28546 6.61349 9.28546 6.69609 9.29456C6.67325 9.21572 6.65225 9.13637 6.63309 9.05656L6.57289 8.82276ZM25.713 11.0061L25.517 10.8346L24.1156 9.61516L23.9301 9.45976L23.7411 9.29456L20.0731 6.08156L19.5551 6.32236L19.175 6.50016L18.8124 6.66816L17.5076 7.27506H17.4999L16.1965 6.66816L15.8339 6.49806L15.4538 6.32306L14.9358 6.08086L11.2643 9.28966L11.0753 9.44576L10.8905 9.60116L9.48909 10.8206L9.29309 10.9914L9.08939 11.1692L7.67119 12.4152L8.71419 16.4864L8.78069 16.7461L8.84649 17.0051L9.08449 17.9389L9.14399 18.1664L9.20139 18.3918L9.28889 18.7348L11.9664 21.644L12.0182 22.0927L12.0504 22.3727L12.0819 22.6499L12.2065 23.7398L12.2373 24.0058L12.2674 24.2711L12.5383 26.6266L13.6583 26.4397V27.3196L15.7982 28.0805L16.0194 28.1603L16.242 28.2373L17.1296 28.5495L17.3522 28.6286L17.5076 28.6832L17.6637 28.6286L17.8863 28.5495L18.7732 28.238L18.9958 28.1603L19.217 28.0805L21.3548 27.3196V26.4425L22.4776 26.6294L22.7485 24.2739L22.7779 24.0093L22.8087 23.7433L22.9333 22.6534L22.9648 22.3762L22.9977 22.0962L23.0488 21.6475L25.7249 18.7376L25.8138 18.3946L25.8712 18.1692L25.9293 17.9417L26.1687 17.0079L26.2345 16.7489L26.301 16.4899L27.344 12.418L25.9258 11.172L25.713 11.0061ZM13.3552 25.5451L13.1326 23.604L13.0997 23.324L13.0843 23.1791L13.036 22.7675L12.8617 21.2387L10.1373 18.2805L10.1296 18.2525L10.0715 18.025L9.72149 16.6551L9.66199 16.4276L8.91649 13.5163L11.3875 13.8684L11.8215 15.3552L15.2361 16.4696L13.7696 21.259L17.0386 23.2834V24.9319L13.3552 25.5451ZM12.399 14.0007L14.5788 14.2821L15.2018 15.4749L12.5803 14.6188L12.399 14.0007ZM15.5707 21.2576H19.4368L17.5027 22.4763L15.5707 21.2576ZM20.4112 26.663L18.8096 27.2328L17.9031 27.5548L17.5027 27.6983L17.1044 27.5555L16.1986 27.2335L14.5949 26.663V26.285L17.5027 25.7992L20.4112 26.285V26.663ZM25.3441 16.4262L25.286 16.6537L24.936 18.0236L24.8765 18.2511V18.2791L22.1521 21.2373L21.9764 22.7661L21.9295 23.177L21.9141 23.3219L21.8812 23.6019L21.6586 25.5437L17.9696 24.9319V23.2862L21.24 21.2618L19.7728 16.4731L23.1874 15.3531L23.6214 13.867L26.0924 13.5149L25.3434 16.4269L25.3441 16.4262ZM19.8057 15.4749L20.4287 14.2821L22.6085 14.0007L22.4279 14.6237L19.8057 15.4749ZM26.0861 12.5713L23.4317 12.9437L19.8288 13.4106L18.5835 15.7815L19.9709 20.3154H15.0324L16.4212 15.7815L15.1752 13.4106L11.573 12.9437L8.92559 12.5657L10.0526 11.5808L10.2444 11.4142L11.4792 10.3362L11.6598 10.1801L15.0912 7.18266L16.1559 7.67756L16.4674 7.81966L17.0421 8.08706L17.3459 8.22916L17.5139 8.30616L17.6819 8.22916L17.9934 8.08706L18.5695 7.81966L18.8733 7.67756L19.9177 7.18266L23.3428 10.1815L23.5248 10.3369L24.7596 11.4163L24.9514 11.5829L26.0861 12.5713Z" fill="#223A72"></path>
    </g>
  </g>
  <defs>
    <clipPath id="clip0_281_2808">
      <rect width="35" height="35" fill="white"></rect>
    </clipPath>
  </defs>
</svg>
