<?xml version="1.0" encoding="UTF-8"?>
<svg xmlns="http://www.w3.org/2000/svg" width="40" height="40" viewBox="0 0 40 40" fill="none">
  <g id="Solid/Navigation/Explore">
    <g id="Icon">
      <path fill-rule="evenodd" clip-rule="evenodd" d="M19.1255 6.50873C14.3242 3.67821 8.45236 3.21591 3.25371 5.25913C2.49651 5.55673 2 6.27731 2 7.07863V26.717C2 28.0324 3.35216 28.9319 4.5952 28.4434C8.85236 26.7702 13.6608 27.1488 17.5925 29.4667L19.5387 30.614C19.6871 30.7015 19.8459 30.7398 20 30.7371C20.1541 30.7398 20.3129 30.7015 20.4613 30.614L22.4075 29.4667C26.3392 27.1488 31.1476 26.7702 35.4048 28.4434C36.6478 28.9319 38 28.0324 38 26.717V7.07863C38 6.27731 37.5035 5.55673 36.7463 5.25913C31.5476 3.21591 25.6758 3.67821 20.8746 6.50873L20 7.02431L19.1255 6.50873ZM21.2857 10.5331C21.2857 9.83539 20.7101 9.26979 20 9.26979C19.2899 9.26979 18.7143 9.83539 18.7143 10.5331V26.535C18.7143 27.2327 19.2899 27.7983 20 27.7983C20.7101 27.7983 21.2857 27.2327 21.2857 26.535V10.5331Z" fill="white"></path>
      <path d="M4.09972 31.6594C7.56919 29.6708 11.8594 29.6708 15.3288 31.6594L17.1927 32.7277C18.9275 33.722 21.0725 33.722 22.8073 32.7277L24.6712 31.6594C28.1406 29.6708 32.4308 29.6708 35.9003 31.6594L36.0764 31.7603C36.6898 32.1119 36.8969 32.8854 36.5391 33.4881C36.1814 34.0907 35.3941 34.2943 34.7807 33.9427L34.6046 33.8418C31.9358 32.3121 28.6356 32.3121 25.9668 33.8418L24.103 34.9101C21.5676 36.3633 18.4324 36.3633 15.8971 34.9101L14.0332 33.8418C11.3644 32.3121 8.06421 32.3121 5.39539 33.8418L5.21926 33.9427C4.60591 34.2943 3.81864 34.0907 3.46086 33.4881C3.10307 32.8854 3.31024 32.1119 3.92359 31.7603L4.09972 31.6594Z" fill="white"></path>
    </g>
  </g>
</svg>
